<svg xmlns="http://www.w3.org/2000/svg" width="1355" height="517" viewBox="0 0 1355 517" fill="none"><style>.blub{ -webkit-animation:blurb 9s infinite alternate; animation:blurb 9s infinite alternate; } @-webkit-keyframes blurb { 0%{ d: path("M7.47207 516.57H1303.9C1245.42 411.937 1344.08 302.879 1353.26 231.717C1365.58 136.378 1282.29 72.2118 1165.12 70.0855C1087.56 68.6794 1010.25 101.225 862.889 58.048C801.211 39.9746 775.605 23.7532 735.171 13.8762C638.221 -9.78722 533.429 -7.04363 444.69 61.1003C351.361 132.742 353.87 234.907 290.311 315.877C235.591 385.564 111.209 382.34 37.2701 433.645C11.7208 451.376 -4.98892 474.285 1.36989 501.344C2.36791 505.562 4.47802 511.118 7.47207 516.57Z"); } 50%{ d: path("M 7.4721 516.57 H 1303.9 C 1179 420 1262 403 1264 321 C 1255 237 1153 174 1093 161 C 984 134 1022 72 788 21 C 738 3 680 7 641 11 C 558 30 492 43 382 93 C 318 131 239 192 195 253 C 159 353 111.209 382.34 37.2701 433.645 C 11.7208 451.376 -4.9889 474.285 1.3699 501.344 C 2.3679 505.562 4.478 511.118 7.4721 516.57 Z"); } 100%{ d: path("M 7.4721 516.57 H 1303.9 C 1179 420 1297 405 1288 234 C 1276 154 1200 111 1132 73 C 961 -3 1022 72 863 113 C 755 144 765 159 659 73 C 597 28 492 43 382 93 C 318 131 223 187 195 253 C 159 353 111.209 382.34 37.2701 433.645 C 11.7208 451.376 -4.9889 474.285 1.3699 501.344 C 2.3679 505.562 4.478 511.118 7.4721 516.57 Z"); } } @keyframes blurb { 0%{ d: path("M7.47207 516.57H1303.9C1245.42 411.937 1344.08 302.879 1353.26 231.717C1365.58 136.378 1282.29 72.2118 1165.12 70.0855C1087.56 68.6794 1010.25 101.225 862.889 58.048C801.211 39.9746 775.605 23.7532 735.171 13.8762C638.221 -9.78722 533.429 -7.04363 444.69 61.1003C351.361 132.742 353.87 234.907 290.311 315.877C235.591 385.564 111.209 382.34 37.2701 433.645C11.7208 451.376 -4.98892 474.285 1.36989 501.344C2.36791 505.562 4.47802 511.118 7.47207 516.57Z"); } 50%{ d: path("M 7.4721 516.57 H 1303.9 C 1179 420 1262 403 1264 321 C 1255 237 1153 174 1093 161 C 984 134 1022 72 788 21 C 738 3 680 7 641 11 C 558 30 492 43 382 93 C 318 131 239 192 195 253 C 159 353 111.209 382.34 37.2701 433.645 C 11.7208 451.376 -4.9889 474.285 1.3699 501.344 C 2.3679 505.562 4.478 511.118 7.4721 516.57 Z"); } 100%{ d: path("M 7.4721 516.57 H 1303.9 C 1179 420 1297 405 1288 234 C 1276 154 1200 111 1132 73 C 961 -3 1022 72 863 113 C 755 144 765 159 659 73 C 597 28 492 43 382 93 C 318 131 223 187 195 253 C 159 353 111.209 382.34 37.2701 433.645 C 11.7208 451.376 -4.9889 474.285 1.3699 501.344 C 2.3679 505.562 4.478 511.118 7.4721 516.57 Z"); } } .lady { -webkit-animation: shake 3s infinite alternate; animation: shake 3s infinite alternate; -webkit-transform-origin: 61% 68%; -ms-transform-origin: 61% 68%; transform-origin: 61% 68%; } @-webkit-keyframes shake { 0%{ -webkit-transform: rotateZ(7deg); transform: rotateZ(7deg); } 100%{ -webkit-transform: rotateZ(0deg); transform: rotateZ(0deg); } } @keyframes shake { 0%{ -webkit-transform: rotateZ(7deg); transform: rotateZ(7deg); } 100%{ -webkit-transform: rotateZ(0deg); transform: rotateZ(0deg); } } .man { -webkit-animation: mshake 3s infinite alternate; animation: mshake 3s infinite alternate; -webkit-transform-origin: 75% 58%; -ms-transform-origin: 75% 58%; transform-origin: 75% 58%; } @-webkit-keyframes mshake { 0%{ -webkit-transform: rotate(-7deg); transform: rotate(-7deg); } 100% { -webkit-transform: rotate(0deg); transform: rotate(0deg); } } @keyframes mshake { 0%{ -webkit-transform: rotate(-7deg); transform: rotate(-7deg); } 100% { -webkit-transform: rotate(0deg); transform: rotate(0deg); } }</style>
<path class="blub" fill="url(#paint0_linear)"/>
<path d="M832.497 159.887H564.344V506.347H832.497V159.887Z" fill="#054D56"/>
<path d="M844.079 159.887H564.344V182.98H844.079V159.887Z" fill="#D0D3E6"/>
<path d="M832.497 429.187H564.344V506.347H832.497V429.187Z" fill="#9DC3E6"/>
<path d="M832.11 506.347H684.744V307.77L832.11 239.903V506.347Z" fill="#054D56"/>
<path d="M832.11 429.187H684.744V506.347H832.11V429.187Z" fill="#3F9CAD"/>
<path d="M699.283 307.77H476.861V506.347H699.283V307.77Z" fill="#3F9CAD"/>
<path d="M684.709 307.77H476.861V323.807H684.709V307.77Z" fill="#D0D3E6"/>
<path d="M699.283 429.187H476.861V506.347H699.283V429.187Z" fill="#054D56"/>
<path d="M832.11 250.262L684.744 323.808V307.77L832.11 239.903V250.262Z" fill="#D0D3E6"/>
<path d="M843.692 224.554H601.203L450.986 307.151H678.477L843.692 224.554Z" fill="#054D56"/>
<path d="M798.983 246.889L843.692 224.554H601.204L560.578 246.889H798.983Z" fill="#D0D3E6"/>
<path d="M684.251 318.817H451.936L450 300.852H682.314L684.251 318.817Z" fill="white"/>
<path d="M847.529 218.256L682.315 300.852L684.251 318.817L843.692 239.903L847.529 218.256Z" fill="white"/>
<path d="M1072.59 148.737V506.347H832.497V148.737L952.545 78.185L1072.59 148.737Z" fill="#3F9CAD"/>
<path d="M1072.59 429.187H832.497V506.347H1072.59V429.187Z" fill="#054D56"/>
<path d="M1073.86 148.737V173.171L956.417 105.476L832.11 181.879V164.464L953.812 78.185L1073.86 148.737Z" fill="#D0D3E6"/>
<path d="M1111 159.887L965.289 67L819.542 159.887L828.73 178.368L965.289 91.3317L1101.85 178.368L1111 159.887Z" fill="white"/>
<path d="M965.289 67H662.354L540.335 159.887H819.542L965.289 67Z" fill="#054D56"/>
<path d="M828.73 154.897H540.335V178.403H828.73V154.897Z" fill="white"/>
<path d="M872.208 392.501H720.793V507.448H872.208V392.501Z" fill="white"/>
<path d="M865.801 397.766H727.2V507.482H865.801V397.766Z" fill="#9DC3E6"/>
<path d="M865.801 498.259H727.2V501.942H865.801V498.259Z" fill="#D5E2F2"/>
<path d="M865.801 490.171H727.2V493.854H865.801V490.171Z" fill="#D5E2F2"/>
<path d="M865.801 482.05H727.2V485.732H865.801V482.05Z" fill="#D5E2F2"/>
<path d="M865.801 473.962H727.2V477.644H865.801V473.962Z" fill="#D5E2F2"/>
<path d="M865.801 465.874H727.2V469.557H865.801V465.874Z" fill="#D5E2F2"/>
<path d="M865.801 457.787H727.2V461.469H865.801V457.787Z" fill="#D5E2F2"/>
<path d="M865.801 449.665H727.2V453.347H865.801V449.665Z" fill="#D5E2F2"/>
<path d="M865.801 441.577H727.2V445.259H865.801V441.577Z" fill="#D5E2F2"/>
<path d="M865.801 433.489H727.2V437.172H865.801V433.489Z" fill="#D5E2F2"/>
<path d="M865.801 425.402H727.2V429.084H865.801V425.402Z" fill="#D5E2F2"/>
<path d="M865.801 417.28H727.2V420.962H865.801V417.28Z" fill="#D5E2F2"/>
<path d="M865.801 409.192H727.2V412.875H865.801V409.192Z" fill="#D5E2F2"/>
<path d="M865.801 401.105H727.2V404.787H865.801V401.105Z" fill="#D5E2F2"/>
<path d="M987.045 174.892H924.768V253.772H987.045V174.892Z" fill="#D0D3E6"/>
<path d="M984.827 171.175H922.55V250.055H984.827V171.175Z" fill="white"/>
<path d="M979.969 175.787H927.444V245.444H979.969V175.787Z" fill="#B2C8E0"/>
<path opacity="0.49" d="M979.969 175.787H927.444V227.135H979.969V175.787Z" fill="white"/>
<path d="M922.55 227.169H984.862" stroke="white" stroke-width="0.4691" stroke-miterlimit="10"/>
<path d="M953.706 171.175V250.09" stroke="white" stroke-width="0.4691" stroke-miterlimit="10"/>
<path d="M828.73 294.245H766.454V373.125H828.73V294.245Z" fill="#D0D3E6"/>
<path d="M826.513 290.528H764.236V369.408H826.513V290.528Z" fill="white"/>
<path d="M821.654 295.174H769.129V364.831H821.654V295.174Z" fill="#B2C8E0"/>
<path opacity="0.49" d="M821.654 295.174H769.129V346.522H821.654V295.174Z" fill="white"/>
<path d="M764.236 346.522H826.548" stroke="white" stroke-width="0.4691" stroke-miterlimit="10"/>
<path d="M795.392 290.528V369.442" stroke="white" stroke-width="0.4691" stroke-miterlimit="10"/>
<path d="M572.582 395.908H510.306V474.788H572.582V395.908Z" fill="#D0D3E6"/>
<path d="M570.329 392.191H508.052V471.071H570.329V392.191Z" fill="white"/>
<path d="M565.471 396.802H512.946V466.459H565.471V396.802Z" fill="#B2C8E0"/>
<path opacity="0.49" d="M565.471 396.802H512.946V448.15H565.471V396.802Z" fill="white"/>
<path d="M508.052 448.15H570.364" stroke="white" stroke-width="0.4691" stroke-miterlimit="10"/>
<path d="M539.208 392.191V471.071" stroke="white" stroke-width="0.4691" stroke-miterlimit="10"/>
<path d="M679.569 395.908H617.292V474.788H679.569V395.908Z" fill="#D0D3E6"/>
<path d="M677.351 392.191H615.074V471.071H677.351V392.191Z" fill="white"/>
<path d="M672.493 396.802H619.967V466.459H672.493V396.802Z" fill="#B2C8E0"/>
<path opacity="0.49" d="M672.493 396.802H619.967V448.15H672.493V396.802Z" fill="white"/>
<path d="M615.074 448.15H677.351" stroke="white" stroke-width="0.4691" stroke-miterlimit="10"/>
<path d="M646.23 392.191V471.071" stroke="white" stroke-width="0.4691" stroke-miterlimit="10"/>
<path d="M1103.47 363.041H974.336L886.783 319.196H1015.91L1103.47 363.041Z" fill="#6291BE"/>
<path d="M974.336 363.041L972.858 374.777L885.304 330.931L886.783 319.196L974.336 363.041Z" fill="white"/>
<path d="M974.336 363.041L972.858 374.777H1101.99L1103.47 363.041H974.336Z" fill="white"/>
<path d="M1003.59 385.858H951.381V498.018H1003.59V385.858Z" fill="#D0D3E6"/>
<path d="M997.354 493.139V390.753H951.377V493.139H997.354Z" fill="#6291BE"/>
<path d="M989.298 399.934H961.275V424.369H989.298V399.934Z" fill="#B2C8E0"/>
<path opacity="0.49" d="M989.298 399.934H961.275V412.152H989.298V399.934Z" fill="white"/>
<path d="M1085.27 498.018H914.981V506.347H1085.27V498.018Z" fill="#AAD8F8"/>
<path d="M1085.27 498.018H914.981V506.347H1085.27V498.018Z" fill="#D0D3E6"/>
<path d="M1090.19 374.777H1080.37V506.347H1090.19V374.777Z" fill="white"/>
<path d="M1085.27 374.777H1075.44V506.347H1085.27V374.777Z" fill="#DAE5E9"/>
<path d="M1005.67 444.881H1001.83V506.347H1005.67V444.881Z" fill="white"/>
<path d="M1003.06 444.881H999.226V506.347H1003.06V444.881Z" fill="#DAE5E9"/>
<path d="M1024.33 444.881H1020.49V506.347H1024.33V444.881Z" fill="white"/>
<path d="M1021.76 444.881H1017.92V506.347H1021.76V444.881Z" fill="#DAE5E9"/>
<path d="M1042.99 444.881H1039.15V506.347H1042.99V444.881Z" fill="white"/>
<path d="M1040.42 444.881H1036.58V506.347H1040.42V444.881Z" fill="#DAE5E9"/>
<path d="M1061.68 444.881H1057.84V506.347H1061.68V444.881Z" fill="white"/>
<path d="M1059.07 444.881H1055.24V506.347H1059.07V444.881Z" fill="#DAE5E9"/>
<path d="M1079.53 440.579H977.751V449.217H1079.53V440.579Z" fill="white"/>
<path d="M987.573 374.777H977.751V506.347H987.573V374.777Z" fill="white"/>
<path d="M982.68 374.777H972.858V506.347H982.68V374.777Z" fill="#DAE5E9"/>
<path d="M1041.1 493.782V507.01H1036.04H1038.01H1019.88C1019.88 507.01 1020.57 504.61 1021.46 504.275C1022.34 503.94 1028.09 498.833 1028.58 498.303C1029.08 497.773 1031.74 492.498 1031.74 492.498L1041.1 493.782Z" fill="#133A50"/>
<path d="M1015.78 493.782V507.01H1010.72L1009.44 504.527L1007.93 507.01H988.188C988.188 507.01 988.878 504.61 989.765 504.275C990.652 503.94 1002.74 498.833 1003.26 498.303C1003.76 497.773 1006.42 492.498 1006.42 492.498L1015.78 493.782Z" fill="#133A50"/>
<path d="M1022.48 244.198C1022.41 248.719 1023.56 250.896 1024.51 253.129C1025.46 255.361 1034.4 257.929 1034.4 257.929C1034.4 257.929 1007.4 283.437 996.957 283.27C986.546 283.102 1001.52 259.213 1001.52 259.213C1001.52 259.213 1005.89 256.952 1006.84 254.524C1007.8 252.096 1008.35 246.598 1008.35 246.598L1020.57 233.314L1022.48 244.198Z" fill="#FEB598"/>
<path d="M1002.51 218.885C1000.73 219.862 997.713 221.899 997.581 223.406C997.45 224.913 996.826 229.323 997.089 231.918C997.351 234.514 997.483 241.184 997.975 244.198C998.468 247.212 998.928 251.315 999.782 251.845C1000.64 252.375 1009.11 252.598 1010.88 251.845C1012.66 251.091 1021.39 243.668 1021 237.193C1021 237.193 1024.35 238.533 1027.01 232.728C1027.7 231.221 1021.75 225.416 1021.03 223.63C1019.26 219.332 1009.01 220.504 1006.22 220.197C1003.39 219.862 1002.51 218.885 1002.51 218.885Z" fill="#FEB598"/>
<path d="M997.516 223.406C997.516 223.406 998.534 221.369 1000.57 222.234C1002.61 223.099 1006.91 223.63 1010.19 223.406C1013.48 223.183 1016.66 222.011 1016.66 222.011C1016.66 222.011 1016.66 226.002 1017.55 227.062C1018.44 228.151 1020.47 229.435 1020.6 230.718C1020.73 232.002 1020.6 233.314 1020.6 233.314C1020.6 233.314 1022.64 231.053 1024.28 231.472C1025.92 231.89 1025.92 234.263 1024.28 235.351C1022.64 236.439 1021 237.193 1021 237.193C1021 237.193 1021 239.035 1021.39 240.43C1021.79 241.826 1022.54 244.198 1022.54 244.198C1022.54 244.198 1026.09 236.021 1029.01 232.672C1031.93 229.323 1033.31 222.457 1027.63 219.862C1027.63 219.862 1027.63 213.415 1019.65 212.215C1011.67 211.043 994.067 214.894 995.709 218.132C997.253 221.369 997.516 223.406 997.516 223.406Z" fill="#242938"/>
<path d="M1038.77 342.379C1038.77 342.379 1038.73 368.613 1038.83 393.87C1038.86 400.038 1041.36 415.75 1041.1 426.467C1041 430.374 1041.2 437.24 1041.1 441.398C1040.28 472.376 1040.87 498.526 1040.87 498.526L1026.45 499.894C1026.45 499.894 1021.26 471.595 1016.14 443.352C1014 431.491 1008.19 410.224 1006.78 405.424C1001.98 389.182 997.45 338.975 997.45 338.975L1038.77 342.379Z" fill="#054D56"/>
<path d="M1012.36 368.167C1012.36 368.167 1013.15 409.359 1012.66 416.95C1012.49 419.35 1015.32 428.504 1014.86 439.863C1014.79 441.649 1014.72 443.491 1014.63 445.361C1014.46 449.268 1015.91 453.343 1015.78 457.389C1014.99 477.93 1015.84 498.47 1015.84 498.47C1015.84 498.47 1003.82 498.722 1003.82 498.47C1003.82 498.219 986.119 420.746 984.641 402.075C983.164 383.405 984.05 358.566 982.08 355.971C980.142 353.375 987.335 338.779 987.335 338.779L1004.35 342.379L1012.36 368.167Z" fill="#054D56"/>
<path d="M1029.64 254.859L1046.58 262.645C1046.58 262.645 1050.88 277.325 1050.62 283.297C1050.39 289.27 1040.67 348.519 1040.67 348.519C1040.67 348.519 1016.43 351.031 1004.22 348.519C992.031 346.007 983.624 343.719 983.624 343.719C983.624 343.719 987.827 285.893 988.78 279.921C989.732 273.948 992.13 262.003 992.13 262.003L1001.69 257.817L1006.97 261.278L1029.64 254.859Z" fill="#315C85"/>
<path d="M1003.89 262.422L1005.92 268.227L1009.47 268.422L1014.79 261.557L1007.01 261.278L1003.89 262.422Z" fill="#78A6D2"/>
<path d="M1027.43 251.873L1007.01 261.278L1015.28 267.139L1029.64 254.859L1027.43 251.873Z" fill="#78A6D2"/>
<path d="M1007.01 261.278L1000.34 265.855L1001.72 257.817L1003.89 255.529L1007.01 261.278Z" fill="#78A6D2"/>
<path d="M1032.39 304.34L1024.35 307.745L1016.14 302.973V286.926L1032.39 288.293V304.34Z" fill="#78A6D2"/>
<path d="M872.059 276.125C860.367 278.246 845.819 271.799 836.163 265.157L840.104 253.743L856.886 234.207C856.886 234.207 867.199 234.011 869.071 243.612C870.975 253.212 867.494 260.748 871.632 274.395C871.862 275.009 871.961 275.567 872.059 276.125Z" fill="#242938"/>
<path d="M887.134 369.199C887.298 369.395 887.627 369.729 888.053 370.148C891.173 370.148 895.18 366.269 895.574 366.185C895.968 366.101 898.563 366.325 899.351 366.715C900.139 367.106 900.829 367.162 901.059 366.52C901.289 365.85 899.909 365.013 898.957 364.315C898.005 363.645 895.344 362.669 894.458 362.445C893.308 362.138 892.421 360.771 891.699 360.296C890.188 359.264 887.824 357.031 887.429 355.58C887.429 355.58 885.36 355.971 883.39 356.947C881.387 357.924 881.617 358.399 881.617 358.399C883.686 361.134 886.346 368.25 887.134 369.199Z" fill="#FFBF9F"/>
<path d="M866.443 279.418C861.944 277.046 854.686 278.665 853.307 283.939C851.369 291.363 858.923 317.736 861.78 330.1C862.043 331.272 860.663 325.606 861.583 328.286C864.9 337.774 873.866 354.436 881.124 363.255C881.124 363.255 883.948 359.515 889.104 357.896C889.104 357.896 877.708 329.737 876.001 326.193C876.001 326.193 873.866 311.68 873.143 297.168C872.618 286.674 869.629 281.093 866.443 279.418Z" fill="#315C85"/>
<path d="M904.244 337.579H843.257V368.557H904.244V337.579Z" fill="#315C85"/>
<path d="M901.551 334.872H840.564V365.85H901.551V334.872Z" fill="white"/>
<path d="M899.45 337.579H838.462V368.557H899.45V337.579Z" fill="#315C85"/>
<path d="M897.479 369.646C897.413 368.781 896.658 364.371 894.458 365.85C893.965 364.873 891.962 363.562 891.108 365.041C889.498 364.343 889.498 364.985 888.316 365.459C887.331 365.85 886.444 365.487 886.05 366.967C885.787 367.887 886.28 369.478 887.331 369.981C888.48 370.539 891.206 370.539 892.553 370.483C893.834 370.427 896.724 370.762 897.479 369.646Z" fill="#FFBF9F"/>
<path d="M858.101 276.181C856.328 276.181 853.339 274.088 855.967 269.204L844.866 266.078C844.866 266.078 842.37 272.385 839.119 276.097C835.867 279.809 849.661 302.498 857.642 303.587C865.622 304.703 868.414 296.191 868.414 296.191L862.765 279.474L858.101 276.181Z" fill="#FFBF9F"/>
<path d="M860.335 266.943C857.675 268.785 855.08 275.344 855.179 278.86L838.101 281.846C838.101 281.846 841.91 272.497 843.585 265.436C845.293 258.375 843.52 255.389 843.52 255.389L860.335 266.943Z" fill="#FFBF9F"/>
<path d="M866.148 240.877C868.02 242.914 868.709 245.984 868.874 247.407C869.038 248.831 868.282 250.254 869.333 251.51C870.384 252.766 873.931 254.887 874.292 255.64C874.654 256.394 872.191 257.929 871.961 258.459C871.698 258.989 870.778 263.259 870.351 265.436C869.924 267.613 864.177 267.725 860.4 266.943C856.623 266.162 851.04 263.427 848.873 262.366C846.705 261.306 843.585 255.417 843.585 255.417L840.794 243.835C840.794 243.835 843.06 237.5 851.566 237.444C860.006 237.388 863.914 238.449 866.148 240.877Z" fill="#FFBF9F"/>
<path d="M851.993 256.506C850.088 256.84 848.676 265.994 851.664 272.05C842.764 274.367 838.462 271.995 831.861 269.204C829.595 266.413 826.475 245.565 836.82 238.17C854.095 225.806 863.914 238.895 863.914 238.895C863.914 238.895 860.466 253.491 851.993 256.506Z" fill="#242938"/>
<path d="M840.071 275.511C840.071 275.511 845.622 277.381 850.515 282.014C855.441 286.647 862.239 292.089 866.181 296.163C866.181 296.163 863.75 289.968 862.601 286.702C861.287 282.963 859.776 277.269 858.101 276.181L863.553 277.688C863.553 277.688 868.282 288.6 870.778 292.256C873.307 295.912 877.15 300.963 876.953 305.82C876.788 310.676 873.209 317.597 873.734 321.783C874.26 325.941 873.603 347.375 873.603 347.375C873.603 347.375 862.207 350.584 849.989 350.11C837.739 349.663 839.02 348.463 835.079 350.584C835.079 350.584 840.728 333.058 842.173 322.816C843.224 315.308 838.298 302.471 836.163 294.154C834.028 285.837 825.227 286.033 828.511 281.735C831.828 277.437 840.071 275.511 840.071 275.511Z" fill="#AEBFDE"/>
<path d="M854.522 490.74C854.161 488.842 855.08 480.832 858.332 469.948C858.562 469.195 858.791 468.441 859.021 467.66C854.719 467.771 850.417 467.883 846.114 467.995C845.622 478.935 846.311 490.014 843.191 495.373C843.191 495.373 846.968 499.587 851.435 501.401C853.274 502.154 858.364 505.336 860.828 504.889C864.342 504.22 865.327 501.903 865.327 501.903C865.327 501.903 855.343 495.177 854.522 490.74Z" fill="#FFBF9F"/>
<path d="M843.191 495.373C843.191 495.373 844.998 494.703 846.87 496.349C849.398 498.554 853.044 501.401 856.164 502.601C861.583 504.694 865.294 501.903 865.294 501.903C865.294 501.903 867.823 502.74 871.337 504.722C875.475 507.066 867.363 508.266 856.657 506.955C854.325 506.675 847.855 503.661 847.034 503.633C846.18 503.606 845.326 505.922 844.604 505.922C843.323 505.922 843.093 506.145 843.093 506.145L842.6 500.117L843.191 495.373Z" fill="#133A50"/>
<path d="M873.701 352.789C876.197 370.288 873.931 410.224 873.603 413.797C873.274 417.369 873.866 422.365 871.895 426.411C869.925 430.458 859.415 470.618 858.43 479.911C858.43 479.911 847.231 479.493 844.603 478.544C844.603 478.544 846.574 452.561 846.574 446.868C846.574 441.147 851.172 424.039 852.518 421.667C853.832 419.295 849.562 399.843 849.234 395.545C848.906 391.275 843.29 355.106 843.29 355.106L873.701 352.789Z" fill="#054D56"/>
<path d="M818.264 485.688C818.691 483.902 822.205 477.595 828.511 469.53C824.734 468.72 820.957 467.911 817.18 467.129C813.535 475.139 810.251 482.563 806.343 485.633C806.343 485.633 807.985 491.103 811.17 494.563C812.484 495.987 815.735 501.01 818.067 501.54C821.45 502.294 823.289 500.48 823.289 500.48C823.289 500.48 817.18 490.237 818.264 485.688Z" fill="#FFBF9F"/>
<path d="M806.31 485.633C806.31 485.633 808.182 485.716 809.2 488.005C810.546 491.075 812.615 495.205 814.881 497.549C818.822 501.652 823.256 500.48 823.256 500.48C823.256 500.48 825.161 502.266 827.46 505.503C830.186 509.327 822.468 507.289 813.502 501.875C811.531 500.675 807.032 495.317 806.31 494.954C805.554 494.591 803.846 496.461 803.222 496.182C802.106 495.68 801.81 495.791 801.81 495.791L803.846 489.903L806.31 485.633Z" fill="#133A50"/>
<path d="M826.705 353.069C826.015 356.697 822.468 363.786 826.705 382.149C830.941 400.485 833.043 417.09 833.043 417.09C833.043 417.09 825.292 431.714 821.056 441.929C816.819 452.115 811.893 474.665 811.893 474.665L822.468 480.052C822.468 480.052 842.929 442.822 846.475 437.212C849.99 431.603 854.883 422.895 855.146 417.09C855.606 406.932 858.266 385.135 860.138 376.344C861.32 370.818 864.079 354.185 864.079 354.185L826.705 353.069Z" fill="#054D56"/>
<path d="M876.197 354.324C875.705 349.524 874.949 344.361 873.833 342.072C871.501 337.272 868.808 331.411 868.808 331.411L835.375 343.217C831.697 345.533 828.314 348.715 825.851 353.654C842.403 356.529 859.514 356.557 876.197 354.324Z" fill="#F2EFE8"/>
<path d="M876.986 305.792C877.15 300.936 873.34 295.884 870.811 292.228C868.282 288.572 863.586 277.66 863.586 277.66L858.134 276.153C859.842 277.213 861.32 282.935 862.634 286.674C863.783 289.94 866.213 296.135 866.213 296.135C864.867 294.74 865.261 342.017 866.148 348.91C868.414 357.645 876.986 355.133 876.986 355.133C876.986 355.133 874.293 325.913 873.767 321.755C873.242 317.597 876.789 310.676 876.986 305.792Z" fill="#315C85"/>
<path d="M874.982 314.443C871.731 313.773 868.512 313.048 865.327 312.21C865.228 326.193 865.589 344.807 866.148 348.938C868.414 357.673 876.986 355.161 876.986 355.161C876.986 355.161 874.293 325.941 873.767 321.783C873.504 319.774 874.194 317.15 874.982 314.443Z" fill="#264869"/>
<path d="M869.53 324.881C869.268 312.797 866.213 296.163 866.213 296.163C864.867 294.768 865.261 342.044 866.148 348.938C867.494 354.129 871.074 355.357 873.767 355.468C872.158 342.24 869.826 338.137 869.53 324.881Z" fill="#1D374F"/>
<path d="M829.627 285.837C830.81 282.767 840.104 275.511 840.104 275.511C840.104 275.511 860.171 286.34 866.213 296.163C866.213 296.163 868.512 328.983 867.461 338.947C866.378 348.91 858.988 359.85 846.804 358.762C834.619 357.673 825.785 355.161 825.785 355.161C825.785 355.161 837.477 332.723 836.229 327.169C834.028 317.736 827.723 290.665 829.627 285.837Z" fill="#315C85"/>
<path d="M829.463 292.061C830.383 301.996 834.521 319.857 836.196 327.169C837.477 332.723 825.752 355.161 825.752 355.161C825.752 355.161 834.587 357.645 846.771 358.762C858.955 359.878 866.345 348.91 867.429 338.947C867.921 334.286 867.691 324.574 867.297 315.587C853.339 309.28 839.447 302.136 829.463 292.061Z" fill="#264869"/>
<path d="M862.864 237.612C865.294 240.151 865.163 244.058 863.094 246.821C861.057 249.612 857.445 251.37 853.668 252.124" stroke="#242938" stroke-width="0.2241" stroke-miterlimit="10"/>
<path xmlns="http://www.w3.org/2000/svg" class="lady" d="M905.295 316.369C907.069 316.676 910.616 315.811 912.455 315.057C913.309 314.694 915.246 314.611 916.1 313.829C916.757 313.215 919.023 311.513 920.206 311.066C921.388 310.62 922.964 309.866 923.588 310.369C924.212 310.871 923.818 311.401 923.03 311.848C922.242 312.294 923.293 314.973 925.395 314.499C927.496 314.025 929.96 312.49 931.142 312.21C932.324 311.931 932.488 313.466 932.488 313.466C932.488 313.466 933.539 314.304 933.441 314.973C933.375 315.671 933.244 316.453 932.981 317.067C932.718 317.681 932.061 319.104 931.963 319.774C931.897 320.471 929.171 322.146 928.088 322.509C927.004 322.871 921.651 322.564 920.238 322.76C918.826 322.983 909.729 321.867 905.722 322.341C905.722 322.341 905.098 322.313 904.934 320.276C904.803 318.183 905.295 316.369 905.295 316.369Z" fill="#FFBF9F"/>
<path xmlns="http://www.w3.org/2000/svg" class="lady" d="M838.002 277.046C832.616 275.93 826.836 279.53 826.244 287.484C825.62 295.438 848.479 309.81 859.743 318.908C860.794 319.774 861.484 320.304 864.9 320.75C876.953 322.369 887.856 323.876 907.857 324.909C907.857 324.909 908.153 320.946 908.711 316.09C908.711 316.09 877.511 312.545 868.611 307.829C868.611 307.829 862.305 304.396 856.755 295.577C850.646 285.893 845.556 278.581 838.002 277.046Z" fill="#315C85"/>
<path xmlns="http://www.w3.org/2000/svg" d="M1047.73 352.733C1047.67 354.436 1047.53 355.747 1047.27 356.445C1045.6 361.329 1043.03 364.79 1041.46 366.492C1039.88 368.167 1039 371.348 1039 371.348L1041.52 371.544C1041.52 371.544 1042.48 370.595 1043.2 370.009C1043.92 369.422 1045.17 368.892 1045.17 369.311C1045.14 369.729 1044.78 374.055 1043.82 375.786C1042.9 377.516 1039.98 378.549 1039.98 378.549L1044.22 378.939L1048.06 377.962L1049.6 377.46L1051.21 374.865L1053.05 373.999C1053.05 373.999 1054.46 369.367 1055.15 366.018C1055.84 362.669 1055.22 361.497 1055.12 356.306C1055.12 355.692 1055.25 354.464 1055.48 352.817C1052.92 352.817 1050.33 352.761 1047.73 352.733Z" fill="#FEB598"/>
<path d="M1046.55 359.683L1057.32 360.576C1057.32 360.576 1061.06 321.699 1061 319.997C1060.93 318.294 1061.52 279.39 1056.04 270.376C1051.61 263.092 1044.71 261.473 1038.93 263.176C1033.12 264.878 1035.55 276.209 1035.55 276.209L1044.38 320.276L1046.55 359.683Z" fill="#315C85"/>
<path d="M1051.74 353.264C1049.54 353.599 1047.63 353.236 1046.09 352.426L1046.55 359.683L1057.32 360.576C1057.32 360.576 1057.72 357.143 1058.24 352.426C1056.04 352.65 1053.91 352.929 1051.74 353.264Z" fill="#78A6D2"/>
<path xmlns="http://www.w3.org/2000/svg" class="man" d="M935.181 312.378L929.04 312.88C929.04 312.88 925.756 312.043 924.639 311.792C922.603 311.317 921.454 312.88 921.454 312.88L923.424 314.192L928.318 318.546C928.318 318.546 930.551 320.109 931.996 319.746C933.441 319.383 937.645 318.35 937.645 318.35L935.181 312.378Z" fill="#FEB598"/>
<path xmlns="http://www.w3.org/2000/svg" class="man" d="M930.255 312.797L934.262 320.918C934.262 320.918 980.799 312.071 982.54 310.899C983.624 310.173 993.969 299.708 1001.95 291.586C1007.11 286.34 1011.24 282.07 1011.24 282.07C1011.24 282.07 1009.21 268.59 1003.33 265.52C997.483 262.45 992.491 262.45 992.491 262.45L969.501 297.894L930.255 312.797Z" fill="#315C85"/>
<path xmlns="http://www.w3.org/2000/svg" class="man" d="M939.779 309.196L930.255 312.797L934.262 320.918C934.262 320.918 937.973 320.22 943.294 319.188C942.078 315.894 940.896 312.545 939.779 309.196Z" fill="#78A6D2"/>
<path d="M1005.92 268.227C1005.92 268.227 1004.9 280.953 1003.76 295.968C1002.57 311.82 1001.23 330.044 1000.83 332.472C1000.08 337.216 1005.89 342.351 1005.89 342.351C1005.89 342.351 1010.69 336.128 1010.95 334.174C1011.11 332.918 1008.85 305.903 1008.32 286.898C1008.06 276.432 1009.4 268.422 1009.4 268.422L1005.92 268.227Z" fill="#78A6D2"/>
<path d="M840.071 275.511C840.071 275.511 848.019 278.19 853.504 281.846C858.988 285.53 866.18 296.163 866.18 296.163C866.18 296.163 861.451 292.172 859.382 290.833C858.43 290.219 854.095 288.349 854.095 288.349L855.638 286.451L850.351 286.228C850.351 286.228 848.052 283.27 845.392 280.59C841.582 276.823 837.411 276.293 837.411 276.293L840.071 275.511Z" fill="#78A6D2"/>
<path d="M857.28 276.041C857.609 276.767 859.251 280.367 860.762 283.632C862.272 286.926 866.213 296.135 866.213 296.135C866.213 296.135 865.557 291.224 865.425 289.409C865.294 287.595 865.195 285.809 865.195 285.809H863.061C863.061 285.809 863.192 284.358 863.947 283.688C863.947 283.688 862.666 280.59 861.747 279.251C860.827 277.911 858.988 276.041 858.988 276.041H857.28Z" fill="#78A6D2"/>
<path xmlns="http://www.w3.org/2000/svg" class="man" fill="#FEB598" d="M917.381 322.425C918.826 320.248 919.155 319.076 920.567 318.964C921.979 318.853 921.946 319.634 921.946 319.634C921.946 319.634 923.523 319.02 924.146 319.467C924.77 319.913 924.77 319.913 924.77 319.913C924.77 319.913 925.526 319.885 926.38 319.997C927.234 320.109 927.661 320.723 927.661 320.723C927.661 320.723 929.5 319.774 929.5 320.723C929.5 321.671 927.956 322.983 927.135 322.983C926.314 322.927 917.381 322.425 917.381 322.425Z"/>
<path xmlns="http://www.w3.org/2000/svg" class="man" d="M923.063 311.848C921.454 312.685 919.22 314.108 919.22 314.973C919.188 315.839 920.107 316.062 921.158 315.504C922.176 314.946 925.428 313.913 925.428 313.913L926.807 313.383L923.063 311.848Z" fill="#FEB598"/>
<defs>
<linearGradient id="paint0_linear" x1="675.336" y1="503.212" x2="683.385" y2="64.8696" gradientUnits="userSpaceOnUse">
<stop stop-color="#FBFEFF"/>
<stop offset="1" stop-color="#AFE9F1"/>
</linearGradient>
</defs>
</svg>