<svg width="216" height="214" viewBox="0 0 216 214" fill="none" xmlns="http://www.w3.org/2000/svg"><style>.needle {
  -webkit-animation: anit 9s infinite ease-in-out alternate;
          animation: anit 9s infinite ease-in-out alternate;
  transform-origin: 50.5% 68.1%;
}
@-webkit-keyframes anit {
  from {
    transform: rotateZ(-115deg);
  }
  to {
    transform: rotateZ(40deg);
  }
}
@keyframes anit {
  from {
    transform: rotateZ(-115deg);
  }
  to {
    transform: rotateZ(40deg);
  }
}</style>
<path d="M41.7945 81.8401L73.6767 114.089C73.6767 114.089 61.5304 126.721 61.7523 145.683H16.851C16.851 145.669 13.1671 113.866 41.7945 81.8401Z" fill="#FAA741"/>
<path d="M45.7003 78.3478L77.4789 110.269C77.4789 110.269 91.4745 97.5186 106.21 98.3954V52.861C106.21 52.861 72.8038 52.43 45.7003 78.3478Z" fill="#FAA741"/>
<path d="M111.418 97.9645V53.0839C111.418 53.0839 147.856 53.0839 171.927 78.5707L140.37 110.269L137.87 107.981L134.615 105.796C134.615 105.796 120.516 97.5186 111.625 98.3955L111.418 97.9645Z" fill="#3F9CAD"/>
<path d="M143.507 113.762L175.389 81.7361C175.389 81.7361 199.904 103.953 200.555 145.357H155.653C155.653 145.342 156.526 127.702 143.507 113.762Z" fill="#3F9CAD"/>
<path class="needle" d="M151.955 84.9461L117.483 140.66C117.483 140.66 116.729 137.346 110.767 135.86L151.955 84.9461Z" fill="#3F9CAD" stroke="white" stroke-width="0.5" stroke-miterlimit="10"/>
<path class="needle" d="M100.144 146.887C100.144 146.218 100.144 145.565 100.144 144.896C100.174 144.807 100.218 144.703 100.233 144.599C100.751 141.002 103.369 138.089 106.89 137.198C107.275 137.094 107.66 137.019 108.044 136.945C108.71 136.945 109.361 136.945 110.027 136.945C110.116 136.975 110.219 137.019 110.323 137.034C113.903 137.554 116.803 140.185 117.69 143.722C117.794 144.108 117.868 144.495 117.942 144.881C117.942 145.55 117.942 146.204 117.942 146.872C117.912 146.962 117.868 147.066 117.853 147.17C117.335 150.766 114.717 153.679 111.196 154.57C110.811 154.674 110.426 154.749 110.042 154.823C109.376 154.823 108.725 154.823 108.059 154.823C107.97 154.793 107.867 154.749 107.763 154.734C104.183 154.214 101.283 151.583 100.396 148.046C100.292 147.66 100.218 147.274 100.144 146.887ZM111.876 145.906C111.876 144.331 110.619 143.053 109.036 143.038C107.467 143.038 106.195 144.301 106.18 145.892C106.18 147.467 107.438 148.745 109.021 148.76C110.604 148.76 111.876 147.482 111.876 145.906Z" fill="#3F9CAD"/>
<path class="needle" d="M99.7003 149.815L89.9359 162.016L98.8274 160.277L100.129 169.432L108.37 155.923C108.385 155.908 102.526 155.908 99.7003 149.815Z" fill="#3F9CAD"/>
<path d="M20.3178 152.814V155.711H19.342V148.311H22.0712C22.881 148.311 23.5145 148.518 23.972 148.931C24.4327 149.345 24.6631 149.892 24.6631 150.573C24.6631 151.291 24.4378 151.845 23.9872 152.235C23.54 152.621 22.8979 152.814 22.061 152.814H20.3178ZM20.3178 152.016H22.0712C22.593 152.016 22.9928 151.894 23.2706 151.65C23.5484 151.403 23.6873 151.047 23.6873 150.583C23.6873 150.143 23.5484 149.79 23.2706 149.526C22.9928 149.262 22.6116 149.124 22.1271 149.114H20.3178V152.016ZM31.6004 152.25C31.6004 152.975 31.4785 153.609 31.2345 154.151C30.9906 154.689 30.645 155.101 30.1977 155.386C29.7505 155.67 29.2287 155.813 28.6324 155.813C28.0496 155.813 27.5329 155.67 27.0823 155.386C26.6317 155.098 26.281 154.689 26.0303 154.161C25.7829 153.629 25.6559 153.014 25.6491 152.316V151.782C25.6491 151.071 25.7728 150.442 26.0201 149.897C26.2674 149.351 26.6164 148.935 27.0671 148.647C27.5211 148.355 28.0395 148.21 28.6222 148.21C29.2152 148.21 29.7369 148.354 30.1876 148.642C30.6416 148.926 30.9906 149.341 31.2345 149.887C31.4785 150.429 31.6004 151.061 31.6004 151.782V152.25ZM30.6297 151.772C30.6297 150.895 30.4535 150.222 30.1012 149.755C29.7488 149.284 29.2558 149.048 28.6222 149.048C28.0056 149.048 27.5194 149.284 27.1636 149.755C26.8112 150.222 26.63 150.873 26.6198 151.706V152.25C26.6198 153.1 26.7977 153.77 27.1535 154.257C27.5126 154.742 28.0056 154.984 28.6324 154.984C29.2626 154.984 29.7505 154.756 30.0961 154.298C30.4417 153.837 30.6196 153.178 30.6297 152.321V151.772ZM38.7563 152.25C38.7563 152.975 38.6343 153.609 38.3904 154.151C38.1464 154.689 37.8008 155.101 37.3536 155.386C36.9063 155.67 36.3846 155.813 35.7882 155.813C35.2055 155.813 34.6888 155.67 34.2381 155.386C33.7875 155.098 33.4368 154.689 33.1861 154.161C32.9388 153.629 32.8117 153.014 32.8049 152.316V151.782C32.8049 151.071 32.9286 150.442 33.176 149.897C33.4233 149.351 33.7723 148.935 34.2229 148.647C34.6769 148.355 35.1953 148.21 35.7781 148.21C36.371 148.21 36.8928 148.354 37.3434 148.642C37.7974 148.926 38.1464 149.341 38.3904 149.887C38.6343 150.429 38.7563 151.061 38.7563 151.782V152.25ZM37.7856 151.772C37.7856 150.895 37.6094 150.222 37.257 149.755C36.9046 149.284 36.4117 149.048 35.7781 149.048C35.1614 149.048 34.6752 149.284 34.3195 149.755C33.9671 150.222 33.7858 150.873 33.7757 151.706V152.25C33.7757 153.1 33.9535 153.77 34.3093 154.257C34.6684 154.742 35.1614 154.984 35.7882 154.984C36.4184 154.984 36.9063 154.756 37.2519 154.298C37.5975 153.837 37.7754 153.178 37.7856 152.321V151.772ZM42.9339 152.718H41.1958V155.711H40.2149V148.311H42.6646C43.4981 148.311 44.1384 148.501 44.5857 148.88C45.0363 149.26 45.2616 149.812 45.2616 150.537C45.2616 150.998 45.1362 151.4 44.8855 151.742C44.6382 152.084 44.2926 152.34 43.8487 152.509L45.5869 155.65V155.711H44.5399L42.9339 152.718ZM41.1958 151.92H42.6951C43.1796 151.92 43.5641 151.794 43.8487 151.544C44.1367 151.293 44.2807 150.957 44.2807 150.537C44.2807 150.08 44.1435 149.729 43.8691 149.485C43.598 149.241 43.205 149.118 42.69 149.114H41.1958V151.92Z" fill="#3F9CAD"/>
<path d="M163.787 154.848C163.537 155.207 163.186 155.476 162.735 155.656C162.288 155.832 161.766 155.92 161.17 155.92C160.567 155.92 160.031 155.779 159.564 155.498C159.096 155.214 158.734 154.81 158.476 154.289C158.222 153.767 158.092 153.162 158.085 152.474V151.829C158.085 150.714 158.344 149.85 158.863 149.237C159.384 148.624 160.116 148.317 161.058 148.317C161.831 148.317 162.452 148.515 162.923 148.912C163.394 149.305 163.682 149.864 163.787 150.589H162.811C162.628 149.61 162.046 149.12 161.063 149.12C160.409 149.12 159.913 149.35 159.574 149.811C159.239 150.269 159.069 150.933 159.066 151.803V152.408C159.066 153.238 159.256 153.899 159.635 154.39C160.015 154.878 160.528 155.122 161.175 155.122C161.541 155.122 161.861 155.081 162.136 155C162.41 154.919 162.637 154.782 162.817 154.589V152.927H161.104V152.134H163.787V154.848ZM171.111 152.357C171.111 153.082 170.989 153.716 170.745 154.258C170.501 154.797 170.155 155.209 169.708 155.493C169.261 155.778 168.739 155.92 168.143 155.92C167.56 155.92 167.043 155.778 166.593 155.493C166.142 155.205 165.791 154.797 165.541 154.268C165.293 153.736 165.166 153.121 165.159 152.423V151.89C165.159 151.178 165.283 150.55 165.53 150.004C165.778 149.459 166.127 149.042 166.577 148.754C167.031 148.463 167.55 148.317 168.133 148.317C168.726 148.317 169.247 148.461 169.698 148.749C170.152 149.034 170.501 149.449 170.745 149.994C170.989 150.536 171.111 151.168 171.111 151.89V152.357ZM170.14 151.88C170.14 151.002 169.964 150.33 169.612 149.862C169.259 149.391 168.766 149.156 168.133 149.156C167.516 149.156 167.03 149.391 166.674 149.862C166.322 150.33 166.14 150.98 166.13 151.814V152.357C166.13 153.208 166.308 153.877 166.664 154.365C167.023 154.849 167.516 155.092 168.143 155.092C168.773 155.092 169.261 154.863 169.606 154.406C169.952 153.945 170.13 153.286 170.14 152.429V151.88ZM178.267 152.357C178.267 153.082 178.145 153.716 177.901 154.258C177.657 154.797 177.311 155.209 176.864 155.493C176.417 155.778 175.895 155.92 175.299 155.92C174.716 155.92 174.199 155.778 173.749 155.493C173.298 155.205 172.947 154.797 172.696 154.268C172.449 153.736 172.322 153.121 172.315 152.423V151.89C172.315 151.178 172.439 150.55 172.686 150.004C172.934 149.459 173.283 149.042 173.733 148.754C174.187 148.463 174.706 148.317 175.288 148.317C175.881 148.317 176.403 148.461 176.854 148.749C177.308 149.034 177.657 149.449 177.901 149.994C178.145 150.536 178.267 151.168 178.267 151.89V152.357ZM177.296 151.88C177.296 151.002 177.12 150.33 176.767 149.862C176.415 149.391 175.922 149.156 175.288 149.156C174.672 149.156 174.186 149.391 173.83 149.862C173.477 150.33 173.296 150.98 173.286 151.814V152.357C173.286 153.208 173.464 153.877 173.82 154.365C174.179 154.849 174.672 155.092 175.299 155.092C175.929 155.092 176.417 154.863 176.762 154.406C177.108 153.945 177.286 153.286 177.296 152.429V151.88ZM179.73 155.818V148.419H181.819C182.463 148.419 183.032 148.561 183.527 148.846C184.021 149.13 184.403 149.535 184.67 150.06C184.941 150.585 185.079 151.188 185.082 151.869V152.342C185.082 153.04 184.946 153.652 184.675 154.177C184.408 154.702 184.023 155.105 183.522 155.386C183.024 155.668 182.443 155.812 181.779 155.818H179.73ZM180.706 149.222V155.021H181.733C182.485 155.021 183.069 154.787 183.486 154.319C183.906 153.852 184.116 153.186 184.116 152.322V151.89C184.116 151.05 183.918 150.397 183.522 149.933C183.129 149.466 182.57 149.228 181.845 149.222H180.706Z" fill="#3F9CAD"/>
</svg>