<svg width="377" height="163" viewBox="0 0 377 163" fill="none" xmlns="http://www.w3.org/2000/svg">
<path d="M30.0266 143.018H38.1819V144.128H31.1386V148.384H37.8112V149.494H31.1386V153.749H38.3673V154.859H29.8412V143.018H30.0266Z" fill="#676A6F"/>
<path d="M39.1087 145.793H40.4061L43.7424 153.379L47.0787 145.793H48.3761L44.1131 154.859H43.001L39.1087 145.793Z" fill="#676A6F"/>
<path d="M49.3029 150.234C49.3029 147.274 50.971 145.608 53.9366 145.608C55.4194 145.608 56.5315 146.163 57.4582 146.904C58.1996 147.829 58.5703 149.124 58.385 150.789H50.7856C50.7856 152.639 52.0831 153.749 54.1219 153.749C55.4194 153.749 56.5315 153.379 57.0875 152.454L57.8289 153.194C57.0875 154.304 55.6047 154.859 53.9366 154.859C51.1563 154.859 49.3029 153.194 49.3029 150.234ZM50.6003 149.864H57.2729C57.2729 148.939 57.0875 148.199 56.5315 147.829C55.9754 147.274 55.0487 146.904 53.9366 146.904C51.8977 146.719 50.6003 147.829 50.6003 149.864Z" fill="#676A6F"/>
<path d="M60.4238 154.859V145.793H61.3505L61.5359 146.904C61.7212 146.533 62.648 145.608 64.3161 145.608C64.5015 145.608 64.6868 145.608 64.8722 145.608V146.904C63.9454 146.719 63.3894 146.904 62.648 147.459C61.7212 148.199 61.5359 149.124 61.5359 150.049V155.044H60.4238V154.859Z" fill="#676A6F"/>
<path d="M65.6136 145.793H67.0964L70.4326 152.454L73.7689 145.793H75.2517L68.5792 158.19H67.2817L69.6912 153.564L65.6136 145.793Z" fill="#676A6F"/>
<path d="M80.6268 145.608C83.5924 145.608 85.2606 147.274 85.2606 150.234C85.2606 153.194 83.5924 154.859 80.6268 154.859C77.6613 154.859 75.9931 153.194 75.9931 150.234C75.9931 147.274 77.8466 145.608 80.6268 145.608ZM77.2906 150.234C77.2906 152.454 78.4027 153.749 80.6268 153.749C82.851 153.749 83.9631 152.454 83.9631 150.234C83.9631 148.014 82.851 146.719 80.6268 146.719C78.4027 146.719 77.2906 148.014 77.2906 150.234Z" fill="#676A6F"/>
<path d="M87.4848 145.793H88.4115L88.5969 146.904C88.9676 146.533 90.0797 145.608 91.9331 145.608C94.1573 145.608 95.6401 146.719 95.6401 149.494V154.859H94.3427V149.864C94.3427 149.309 94.3427 148.199 93.6013 147.459C93.2306 147.089 92.3038 146.719 91.5624 146.719C90.8211 146.719 90.0797 146.904 89.5236 147.274C88.5969 148.014 88.4115 148.939 88.4115 149.494V154.674H87.1141V145.793H87.4848Z" fill="#676A6F"/>
<path d="M97.8643 150.234C97.8643 147.274 99.5324 145.608 102.498 145.608C103.981 145.608 105.093 146.163 106.02 146.904C106.761 147.829 107.132 149.124 106.946 150.789H99.3471C99.3471 152.639 100.645 153.749 102.683 153.749C103.981 153.749 105.093 153.379 105.649 152.454L106.39 153.194C105.649 154.304 104.166 154.859 102.498 154.859C99.7178 154.859 97.8643 153.194 97.8643 150.234ZM99.1617 149.864H105.834C105.834 148.939 105.649 148.199 105.093 147.829C104.537 147.274 103.61 146.904 102.498 146.904C100.459 146.719 99.1617 147.829 99.1617 149.864Z" fill="#676A6F"/>
<path d="M113.619 150.234C113.619 147.274 115.287 145.608 118.253 145.608C119.736 145.608 120.848 145.978 121.589 146.904V142.463H122.886V154.859H121.96L121.589 153.564C120.848 154.304 119.736 154.859 118.253 154.859C115.287 154.859 113.619 153.194 113.619 150.234ZM114.916 150.234C114.916 152.454 116.029 153.749 118.253 153.749C120.477 153.749 121.589 152.639 121.589 150.234C121.589 148.014 120.477 146.719 118.253 146.719C116.029 146.719 114.916 148.014 114.916 150.234Z" fill="#676A6F"/>
<path d="M124.74 150.234C124.74 147.274 126.408 145.608 129.374 145.608C130.856 145.608 131.969 146.163 132.895 146.904C133.637 147.829 134.007 149.124 133.822 150.789H126.037C126.037 152.639 127.335 153.749 129.374 153.749C130.671 153.749 131.783 153.379 132.339 152.454L133.081 153.194C132.339 154.304 130.856 154.859 129.188 154.859C126.593 154.859 124.74 153.194 124.74 150.234ZM126.037 149.864H132.71C132.71 148.939 132.525 148.199 131.969 147.829C131.412 147.274 130.486 146.904 129.374 146.904C127.335 146.719 126.037 147.829 126.037 149.864Z" fill="#676A6F"/>
<path d="M136.417 152.084C136.417 152.454 136.973 153.749 139.382 153.749C140.495 153.749 141.977 153.564 141.977 152.084C141.977 151.714 141.977 150.974 139.197 150.604C136.602 150.234 135.49 149.309 135.676 147.829C135.861 146.348 137.158 145.423 139.197 145.423C141.236 145.423 142.719 146.533 142.719 148.199H141.607C141.607 146.903 140.309 146.533 139.197 146.533C137.714 146.533 136.788 147.088 136.788 147.829C136.788 148.569 137.529 149.124 139.382 149.494C141.977 149.864 143.089 150.604 143.089 152.269C143.089 153.564 141.792 154.674 139.382 154.674C137.158 154.674 135.305 153.749 135.305 151.899H136.417V152.084Z" fill="#676A6F"/>
<path d="M144.572 150.234C144.572 147.274 146.24 145.608 149.206 145.608C150.689 145.608 151.801 146.163 152.728 146.904C153.469 147.829 153.84 149.124 153.654 150.789H146.055C146.055 152.639 147.353 153.749 149.391 153.749C150.689 153.749 151.801 153.379 152.357 152.454L153.098 153.194C152.357 154.304 150.874 154.859 149.206 154.859C146.24 154.859 144.572 153.194 144.572 150.234ZM145.87 149.864H152.542C152.542 148.939 152.357 148.199 151.801 147.829C151.245 147.274 150.318 146.904 149.206 146.904C147.167 146.719 145.87 147.829 145.87 149.864Z" fill="#676A6F"/>
<path d="M155.693 154.859V145.793H156.62L156.805 146.904C156.991 146.533 157.917 145.608 159.586 145.608C159.771 145.608 159.956 145.608 160.142 145.608V146.904C159.215 146.719 158.659 146.904 157.917 147.459C156.991 148.199 156.805 149.124 156.805 150.049V155.044H155.693V154.859Z" fill="#676A6F"/>
<path d="M160.698 145.793H161.995L165.331 153.379L168.668 145.793H169.965L165.702 154.859H164.961L160.698 145.793Z" fill="#676A6F"/>
<path d="M171.077 150.234C171.077 147.274 172.745 145.608 175.711 145.608C177.194 145.608 178.306 146.163 179.233 146.904C179.974 147.829 180.345 149.124 180.159 150.789H172.56C172.56 152.639 173.857 153.749 175.896 153.749C177.194 153.749 178.306 153.379 178.862 152.454L179.603 153.194C178.862 154.304 177.379 154.859 175.711 154.859C172.745 154.859 171.077 153.194 171.077 150.234ZM172.189 149.864H178.862C178.862 148.939 178.677 148.199 178.12 147.829C177.564 147.274 176.638 146.904 175.526 146.904C173.672 146.719 172.189 147.829 172.189 149.864Z" fill="#676A6F"/>
<path d="M182.569 152.084C182.569 152.454 183.125 153.749 185.534 153.749C186.647 153.749 188.129 153.564 188.129 152.084C188.129 151.714 188.129 150.974 185.349 150.604C182.754 150.234 181.642 149.309 181.827 147.829C182.013 146.348 183.31 145.423 185.349 145.423C187.388 145.423 188.871 146.533 188.871 148.199H187.759C187.759 146.903 186.461 146.533 185.349 146.533C183.866 146.533 182.94 147.088 182.94 147.829C182.94 148.569 183.681 149.124 185.534 149.494C188.129 149.864 189.241 150.604 189.241 152.269C189.241 153.564 187.944 154.674 185.534 154.674C183.31 154.674 181.457 153.749 181.457 151.899H182.569V152.084Z" fill="#676A6F"/>
<path d="M195.729 150.234C195.729 147.274 197.397 145.608 200.362 145.608C201.845 145.608 202.957 145.978 203.699 146.904L203.884 145.608H204.811V154.674H203.884L203.699 153.379C202.957 154.304 201.845 154.674 200.362 154.674C197.397 154.859 195.729 153.194 195.729 150.234ZM197.026 150.234C197.026 152.454 198.138 153.749 200.362 153.749C202.587 153.749 203.699 152.454 203.699 150.234C203.699 148.014 202.587 146.719 200.362 146.719C198.138 146.719 197.026 148.014 197.026 150.234Z" fill="#676A6F"/>
<path d="M212.966 152.084C212.966 152.454 213.522 153.749 215.932 153.749C217.044 153.749 218.527 153.564 218.527 152.084C218.527 151.714 218.527 150.974 215.746 150.604C213.151 150.234 212.039 149.309 212.225 147.829C212.41 146.348 213.707 145.423 215.746 145.423C217.785 145.423 219.268 146.533 219.268 148.199H218.156C218.156 146.903 216.858 146.533 215.746 146.533C214.264 146.533 213.337 147.088 213.337 147.829C213.337 148.569 214.078 149.124 215.932 149.494C218.527 149.864 219.639 150.604 219.639 152.269C219.639 153.564 218.341 154.674 215.932 154.674C213.707 154.674 211.854 153.749 211.854 151.899H212.966V152.084Z" fill="#676A6F"/>
<path d="M221.121 150.234C221.121 147.274 222.79 145.608 225.755 145.608C227.238 145.608 228.35 146.163 229.277 146.904C230.018 147.829 230.389 149.124 230.204 150.789H222.419C222.419 152.639 223.716 153.749 225.755 153.749C227.053 153.749 228.165 153.379 228.721 152.454L229.462 153.194C228.721 154.304 227.238 154.859 225.57 154.859C222.79 154.859 221.121 153.194 221.121 150.234ZM222.419 149.864H229.091C229.091 148.939 228.906 148.199 228.35 147.829C227.794 147.274 226.867 146.904 225.755 146.904C223.716 146.719 222.419 147.829 222.419 149.864Z" fill="#676A6F"/>
<path d="M231.686 150.234C231.686 147.274 233.354 145.608 236.32 145.608C238.73 145.608 240.212 146.719 240.768 148.754H239.471C239.1 147.459 237.988 146.719 236.32 146.719C234.096 146.719 232.984 148.014 232.984 150.234C232.984 152.454 234.096 153.749 236.32 153.749C237.988 153.749 238.915 153.009 239.471 151.714H240.768C240.212 153.749 238.73 154.859 236.32 154.859C233.354 154.859 231.686 153.194 231.686 150.234Z" fill="#676A6F"/>
<path d="M246.885 145.608C249.851 145.608 251.519 147.274 251.519 150.234C251.519 153.194 249.851 154.859 246.885 154.859C243.919 154.859 242.251 153.194 242.251 150.234C242.251 147.274 243.919 145.608 246.885 145.608ZM243.363 150.234C243.363 152.454 244.475 153.749 246.7 153.749C248.924 153.749 250.036 152.454 250.036 150.234C250.036 148.014 248.924 146.719 246.7 146.719C244.475 146.719 243.363 148.014 243.363 150.234Z" fill="#676A6F"/>
<path d="M253.558 145.793H254.484L254.67 146.904C255.04 146.533 256.152 145.608 258.006 145.608C260.23 145.608 261.713 146.719 261.713 149.494V154.859H260.415V149.864C260.415 149.309 260.415 148.199 259.674 147.459C259.303 147.089 258.377 146.719 257.635 146.719C256.894 146.719 256.152 146.904 255.596 147.274C254.67 148.014 254.484 148.939 254.484 149.494V154.674H253.187V145.793H253.558Z" fill="#676A6F"/>
<path d="M264.122 150.234C264.122 147.274 265.791 145.608 268.756 145.608C270.239 145.608 271.351 145.978 272.092 146.904V142.463H273.39V154.859H272.463L272.278 153.564C271.536 154.304 270.424 154.859 268.942 154.859C265.791 154.859 264.122 153.194 264.122 150.234ZM265.235 150.234C265.235 152.454 266.347 153.749 268.571 153.749C270.795 153.749 271.907 152.639 271.907 150.234C271.907 148.014 270.795 146.719 268.571 146.719C266.347 146.719 265.235 148.014 265.235 150.234Z" fill="#676A6F"/>
<path d="M280.433 150.234C280.433 147.274 282.101 145.608 285.067 145.608C287.476 145.608 288.959 146.719 289.515 148.754H288.218C287.847 147.459 286.735 146.719 285.067 146.719C282.843 146.719 281.731 148.014 281.731 150.234C281.731 152.454 282.843 153.749 285.067 153.749C286.735 153.749 287.662 153.009 288.218 151.714H289.515C288.959 153.749 287.476 154.859 285.067 154.859C282.101 154.859 280.433 153.194 280.433 150.234Z" fill="#676A6F"/>
<path d="M291.369 142.463H292.666V146.904C293.037 146.534 294.149 145.608 296.188 145.608C298.412 145.608 299.895 146.719 299.895 149.494V154.859H298.597V149.864C298.597 149.309 298.597 148.199 297.856 147.459C297.485 147.089 296.559 146.719 295.817 146.719C295.076 146.719 294.334 146.904 293.778 147.274C292.852 148.014 292.666 148.939 292.666 149.494V154.489H291.369V142.463V142.463Z" fill="#676A6F"/>
<path d="M301.748 150.234C301.748 147.274 303.416 145.608 306.382 145.608C307.865 145.608 308.977 145.978 309.718 146.904L309.904 145.608H310.83V154.674H309.904L309.718 153.379C308.977 154.304 307.865 154.674 306.382 154.674C303.602 154.859 301.748 153.194 301.748 150.234ZM303.046 150.234C303.046 152.454 304.158 153.749 306.382 153.749C308.606 153.749 309.718 152.454 309.718 150.234C309.718 148.014 308.606 146.719 306.382 146.719C304.158 146.719 303.046 148.014 303.046 150.234Z" fill="#676A6F"/>
<path d="M313.611 145.793H314.537L314.723 146.904C315.093 146.533 316.206 145.608 318.059 145.608C320.283 145.608 321.766 146.719 321.766 149.494V154.859H320.469V149.864C320.469 149.309 320.469 148.199 319.727 147.459C319.356 147.089 318.43 146.719 317.688 146.719C316.947 146.719 316.206 146.904 315.649 147.274C314.723 148.014 314.537 148.939 314.537 149.494V154.674H313.24V145.793H313.611Z" fill="#676A6F"/>
<path d="M323.99 150.234C323.99 147.274 325.658 145.608 328.624 145.608C331.033 145.608 332.516 146.719 333.072 148.754H331.775C331.404 147.459 330.292 146.719 328.624 146.719C326.4 146.719 325.288 148.014 325.288 150.234C325.288 152.454 326.4 153.749 328.624 153.749C330.292 153.749 331.219 153.009 331.775 151.714H333.072C332.516 153.749 331.033 154.859 328.624 154.859C325.844 154.859 323.99 153.194 323.99 150.234Z" fill="#676A6F"/>
<path d="M334.555 150.234C334.555 147.274 336.223 145.608 339.189 145.608C340.672 145.608 341.784 146.163 342.71 146.904C343.452 147.829 343.823 149.124 343.637 150.789H336.038C336.038 152.639 337.335 153.749 339.374 153.749C340.672 153.749 341.784 153.379 342.34 152.454L343.081 153.194C342.34 154.304 340.857 154.859 339.189 154.859C336.223 154.859 334.555 153.194 334.555 150.234ZM335.853 149.864H342.525C342.525 148.939 342.34 148.199 341.784 147.829C341.228 147.274 340.301 146.904 339.189 146.904C337.15 146.719 335.853 147.829 335.853 149.864Z" fill="#676A6F"/>
<path d="M32.0654 125.811V58.0952H48.9322C54.8633 58.0952 59.1264 59.7604 61.7212 62.9057C64.3161 66.0509 65.6136 70.6764 65.6136 76.7819C65.6136 82.3324 64.1308 86.5878 61.3505 89.7331C58.5703 92.8784 54.3073 94.3586 48.9322 94.3586H41.5182V125.811H32.0654ZM41.5182 87.5129H45.7812C49.8589 87.5129 52.8245 86.7729 54.3073 85.2927C55.7901 83.8126 56.7168 81.0373 56.7168 76.7819C56.7168 75.1168 56.7168 73.6366 56.5315 72.5265C56.5315 71.4164 56.3461 70.3063 55.9754 69.3813C55.6047 68.4562 55.234 67.7161 54.8633 67.161C54.3073 66.606 53.7512 66.236 53.0098 65.8659C52.2684 65.4959 51.1564 65.3109 50.0443 65.1259C48.9322 64.9408 47.6347 64.9408 45.9666 64.9408H41.5182V87.5129V87.5129Z" fill="#006171"/>
<path d="M71.7301 125.811V77.337H80.6269V84.1826C82.295 81.4074 83.9631 79.3722 85.8166 78.2621C87.4848 77.152 89.5236 76.5969 91.3771 76.5969C91.9331 76.5969 92.4892 76.5969 92.8599 76.5969V86.4028C91.1918 85.8478 89.5236 85.4777 88.0408 85.4777C86.558 85.4777 85.2606 85.8478 84.1485 86.4028C83.0364 87.1429 81.9243 88.253 80.8122 90.1032V125.811H71.7301Z" fill="#006171"/>
<path d="M111.766 126.367C108.985 126.367 106.576 125.997 104.722 125.071C102.869 124.331 101.386 123.036 100.274 121.371C99.1618 119.706 98.4204 117.671 98.0497 115.451C97.679 113.23 97.4936 110.455 97.4936 107.125V96.0238C97.4936 92.6934 97.679 89.9182 98.235 87.513C98.6057 85.2928 99.5325 83.2576 100.459 81.5924C101.571 79.9273 103.054 78.6321 104.908 77.8921C106.761 77.152 109.171 76.782 111.766 76.782C113.434 76.782 115.102 76.967 116.399 77.337C117.697 77.7071 118.809 78.0771 119.921 78.6322C120.848 79.1872 121.774 79.9273 122.33 80.8524C122.886 81.7774 123.628 82.8875 123.999 83.9976C124.369 85.1078 124.74 86.4029 124.925 87.883C125.111 89.3631 125.296 91.0283 125.481 92.5084C125.481 93.9886 125.667 95.8387 125.667 97.8739V101.759H106.39V108.235C106.39 108.42 106.39 108.605 106.39 108.79C106.39 110.085 106.39 111.195 106.39 111.75C106.39 112.49 106.39 113.23 106.576 114.34C106.761 115.451 106.761 116.191 107.132 116.746C107.502 117.301 107.688 117.856 108.059 118.411C108.429 118.966 108.985 119.336 109.541 119.706C110.097 120.076 110.839 120.076 111.766 120.076C113.619 120.076 115.102 119.336 115.658 118.041C116.399 116.746 116.77 114.71 116.77 112.12V109.16H125.481V111.01C125.481 121.186 120.848 126.367 111.766 126.367ZM106.39 96.9488H116.77V92.5084C116.77 91.2133 116.77 90.1032 116.585 89.3631C116.585 88.4381 116.399 87.698 116.214 86.7729C116.029 85.8478 115.658 85.2928 115.287 84.9227C114.916 84.3677 114.36 84.1827 113.804 83.8126C113.248 83.6276 112.507 83.4426 111.58 83.4426C109.541 83.4426 108.059 84.1827 107.317 85.6628C106.576 87.1429 106.205 90.1032 106.205 94.3586V96.9488H106.39Z" fill="#006171"/>
<path d="M254.67 125.811V77.337H263.566V84.1826C265.235 81.4074 266.903 79.3722 268.756 78.2621C270.424 77.152 272.463 76.5969 274.317 76.5969C274.873 76.5969 275.429 76.5969 275.799 76.5969V86.4028C274.131 85.8478 272.463 85.4777 270.98 85.4777C269.498 85.4777 268.2 85.8478 267.088 86.4028C265.976 87.1429 264.864 88.253 263.752 90.1032V125.811H254.67Z" fill="#006171"/>
<path d="M294.705 126.367C291.925 126.367 289.515 125.997 287.662 125.071C285.808 124.331 284.325 123.036 283.213 121.371C282.101 119.706 281.36 117.671 280.989 115.451C280.619 113.23 280.433 110.455 280.433 107.125V96.0238C280.433 92.6934 280.619 89.9182 281.175 87.513C281.545 85.2928 282.472 83.2576 283.399 81.5924C284.511 79.9273 285.994 78.6321 287.847 77.8921C289.701 77.152 292.11 76.782 294.705 76.782C296.373 76.782 298.041 76.967 299.339 77.337C300.636 77.7071 301.748 78.0771 302.86 78.6322C303.787 79.1872 304.714 79.9273 305.27 80.8524C306.011 81.7774 306.567 82.8875 306.938 83.9976C307.309 85.1078 307.679 86.4029 307.865 87.883C308.05 89.3631 308.235 91.0283 308.421 92.5084C308.421 93.9886 308.606 95.8387 308.606 97.8739V101.759H289.515V108.235C289.515 108.42 289.515 108.605 289.515 108.79C289.515 110.085 289.515 111.195 289.515 111.75C289.515 112.49 289.515 113.23 289.701 114.34C289.886 115.451 289.886 116.191 290.257 116.746C290.442 117.301 290.813 117.856 291.183 118.411C291.554 118.966 292.11 119.336 292.666 119.706C293.222 120.076 293.964 120.076 294.89 120.076C296.744 120.076 298.227 119.336 298.783 118.041C299.524 116.746 299.895 114.71 299.895 112.12V109.16H308.606V111.01C308.421 121.186 303.787 126.367 294.705 126.367ZM289.33 96.9488H299.524V92.5084C299.524 91.2133 299.524 90.1032 299.339 89.3631C299.339 88.4381 299.153 87.698 298.968 86.7729C298.783 85.8478 298.412 85.2928 298.041 84.9227C297.671 84.3677 297.115 84.1827 296.559 83.8126C296.002 83.6276 295.261 83.4426 294.334 83.4426C292.295 83.4426 290.813 84.1827 290.071 85.6628C289.33 87.1429 288.959 90.1032 288.959 94.3586V96.9488H289.33Z" fill="#006171"/>
<path d="M329.736 126.366C327.141 126.366 324.917 125.996 323.063 125.071C321.21 124.146 319.727 123.036 318.615 121.371C317.503 119.706 316.762 117.856 316.391 115.82C315.835 113.785 315.649 111.195 315.649 108.42V94.3585C315.649 91.5833 315.835 88.993 316.391 86.9578C316.947 84.9226 317.688 83.0725 318.615 81.4073C319.542 79.7422 321.21 78.6321 323.063 77.707C324.917 76.7819 327.141 76.4119 329.736 76.4119C334.926 76.4119 338.447 77.892 340.672 81.0373C342.896 83.9976 343.823 88.438 343.823 94.3585V108.42C343.823 114.155 342.71 118.596 340.672 121.741C338.447 124.886 334.926 126.366 329.736 126.366ZM329.736 119.891C330.477 119.891 331.219 119.706 331.96 119.521C332.516 119.336 333.072 118.781 333.443 118.226C333.814 117.671 333.999 117.116 334.37 116.561C334.555 116.006 334.74 115.265 334.926 114.34C335.111 113.415 335.111 112.49 335.111 111.935C335.111 111.38 335.111 110.455 335.111 109.16V93.9885C335.111 92.8784 335.111 92.1383 335.111 91.5833C335.111 91.0282 335.111 90.2881 334.926 89.5481C334.74 88.808 334.74 87.8829 334.74 87.5129C334.555 86.9578 334.37 86.4028 334.184 85.8477C333.999 85.2927 333.628 84.7376 333.258 84.3676C332.887 83.9976 332.516 83.8125 331.96 83.6275C331.404 83.4425 330.848 83.2575 330.107 83.2575C329.365 83.2575 328.809 83.4425 328.253 83.6275C327.697 83.8125 327.326 84.1826 326.956 84.3676C326.585 84.7376 326.214 85.1077 326.029 85.8477C325.844 86.5878 325.658 86.9578 325.473 87.5129C325.288 88.0679 325.288 88.623 325.288 89.5481C325.288 90.4732 325.288 91.2132 325.102 91.5833C325.102 92.1383 325.102 92.8784 325.102 93.9885V109.16C325.102 110.27 325.102 111.01 325.102 111.565C325.102 112.12 325.102 112.86 325.288 113.6C325.288 114.525 325.473 115.265 325.473 115.635C325.473 116.006 325.844 116.746 326.029 117.301C326.214 117.856 326.585 118.411 326.956 118.596C327.326 118.966 327.697 119.151 328.253 119.336C328.439 119.706 329.18 119.891 329.736 119.891Z" fill="#006171"/>
<path d="M193.504 10.7308L193.69 10.9158C195.173 11.2859 196.285 12.026 197.026 13.5061C202.587 24.4221 207.962 35.5231 213.522 46.4391C214.264 48.1043 215.19 49.5844 215.932 51.2496C215.932 51.4346 216.117 51.6196 216.117 51.6196C216.117 51.6196 216.117 51.6196 216.302 51.6196C216.302 51.4346 216.302 51.2496 216.302 51.0645C216.302 49.9544 216.302 48.6593 216.302 47.5492C216.302 46.8092 216.858 46.2541 217.6 46.2541C220.565 46.2541 223.346 46.2541 226.311 46.2541C227.053 46.2541 227.423 46.6241 227.423 47.3642C227.423 47.5492 227.423 47.7342 227.423 47.7342C227.423 56.245 227.423 64.7558 227.423 73.2666C227.423 73.6366 227.423 74.0067 227.794 74.3767C232.613 83.9976 237.432 93.8035 242.251 103.424C242.251 103.609 242.437 103.794 242.437 103.979L242.251 103.794C235.949 96.3937 228.165 90.8432 219.268 86.9579C216.117 85.6627 212.966 84.5526 209.815 83.8126C209.444 83.8126 209.444 83.6275 209.259 83.2575C207.776 80.2972 206.294 77.522 204.811 74.5617C200.918 67.161 197.211 59.5753 193.319 52.1747C193.319 51.9896 193.134 51.8046 193.134 51.6196C184.237 69.1962 175.34 86.5878 166.629 104.164C166.629 104.164 166.629 104.349 166.443 104.349C166.443 104.349 166.443 104.349 166.443 104.534C169.038 103.054 171.633 101.759 174.228 100.649C176.823 99.539 179.603 98.6139 182.569 97.8739C182.569 97.6888 182.569 97.5038 182.569 97.3188C182.569 94.9136 182.569 92.5084 182.569 90.2882C182.569 90.1031 182.569 89.9181 182.569 89.7331C182.569 89.1781 182.94 88.808 183.496 88.808C183.681 88.808 183.681 88.808 183.866 88.808C189.983 88.808 196.099 88.808 202.401 88.808C202.587 88.808 202.587 88.808 202.772 88.808C203.328 88.808 203.699 89.1781 203.884 89.7331C203.884 89.9181 203.884 90.1031 203.884 90.1031C203.884 92.1383 203.884 94.1735 203.884 96.2087C203.884 96.3937 203.884 96.5787 203.884 96.7638C204.255 96.7638 204.625 96.9488 204.996 96.9488C211.669 98.0589 217.971 100.279 223.902 103.239C230.574 106.57 236.691 110.64 242.437 115.45C244.846 117.486 247.256 119.706 249.48 121.926C249.665 122.111 249.665 122.111 249.851 122.296C249.295 123.406 248.368 123.961 247.07 124.331C246.7 124.516 246.329 124.516 245.773 124.516C242.437 124.516 239.1 124.516 235.579 124.516C232.984 124.516 230.389 124.516 227.794 124.516C223.716 124.516 219.639 124.516 215.561 124.701C214.078 124.701 212.595 124.701 211.113 124.701C210.927 124.701 210.927 124.701 210.742 124.701C210.742 124.516 210.742 124.516 210.557 124.516C209.444 120.076 206.664 116.931 202.772 114.525C200.362 113.045 197.582 112.305 194.802 111.935C190.168 111.565 185.72 112.49 181.827 115.08C178.677 117.301 176.452 120.076 175.155 123.776C175.155 123.961 174.97 124.331 174.97 124.516C174.784 124.516 174.599 124.516 174.413 124.516C170.706 124.516 167.185 124.516 163.478 124.516C156.064 124.516 148.65 124.516 141.236 124.516C140.865 124.516 140.495 124.516 140.124 124.331C138.27 123.961 137.158 122.851 136.788 121.001C136.788 120.816 136.602 120.631 136.602 120.446C136.602 120.261 136.602 119.891 136.602 119.706C136.602 119.521 136.788 119.521 136.788 119.336C136.973 118.781 137.158 118.226 137.344 117.856C139.568 113.415 141.607 109.16 143.831 104.905C157.917 76.5969 172.004 48.1043 186.09 19.7967C187.203 17.3914 188.5 15.1712 189.612 12.766C190.354 11.4709 191.28 10.5458 192.763 10.3608C192.948 10.3608 192.948 10.3608 193.134 10.1758C192.948 10.7308 193.319 10.7308 193.504 10.7308Z" fill="#006171"/>
</svg>
