<svg xmlns="http://www.w3.org/2000/svg" width="551" height="550" viewBox="0 0 551 507" fill="none">
  <style>.para { -webkit-animation:float 9s infinite alternate ease-in-out; animation:float 9s infinite alternate ease-in-out; -webkit-transform-origin:50% 0%; -ms-transform-origin:50% 0%; transform-origin:50% 0%; } @-webkit-keyframes float { 0%{ -webkit-transform:translate(10px, 10px) rotate(-3deg); transform:translate(10px, 10px) rotate(-3deg); } 50%{ -webkit-transform:translate(-10px, 0px) rotate(3deg); transform:translate(-10px, 0px) rotate(3deg); } 100%{ -webkit-transform:translate(10px, 10px) rotate(-3deg); transform:translate(10px, 10px) rotate(-3deg); } } @keyframes float { 0%{ -webkit-transform:translate(10px, 10px) rotate(-3deg); transform:translate(10px, 10px) rotate(-3deg); } 50%{ -webkit-transform:translate(-10px, 0px) rotate(3deg); transform:translate(-10px, 0px) rotate(3deg); } 100%{ -webkit-transform:translate(10px, 10px) rotate(-3deg); transform:translate(10px, 10px) rotate(-3deg); } } .leaf { -webkit-animation: mov 9s infinite alternate ease-in-out; animation: mov 9s infinite alternate ease-in-out; -webkit-transform-origin:50% 100%; -ms-transform-origin:50% 100%; transform-origin:50% 100%; } @-webkit-keyframes mov { 0%{ -webkit-transform:rotate(0deg); transform:rotate(0deg); } 50%{ -webkit-transform:rotate(3deg); transform:rotate(3deg); } 100%{ -webkit-transform:rotate(-3deg); transform:rotate(-3deg); } } @keyframes mov { 0%{ -webkit-transform:rotate(0deg); transform:rotate(0deg); } 50%{ -webkit-transform:rotate(3deg); transform:rotate(3deg); } 100%{ -webkit-transform:rotate(-3deg); transform:rotate(-3deg); } }</style>
<path d="M482.42 429.795C472.196 440.507 462.52 447.415 454.882 452.892C365.056 517.073 258.737 498.357 236.159 493.792C202.809 487.037 138.299 474.012 91.6823 419.418C21.1481 336.827 32.1329 206.732 86.8441 120.824C96.8552 105.121 149.71 17.9044 257.155 3.93636C322.181 -4.52361 397.98 12.5485 452.874 58.3175C568.108 154.42 559.892 348.604 482.42 429.795Z" fill="#EAF5FB"/>
<path xmlns="http://www.w3.org/2000/svg" class="leaf" d="M56.1413 70.4598C56.8108 66.9602 61.7403 66.6559 62.8053 70.0642C72.9685 103.082 102.332 188.778 145.298 233.573C215.285 306.517 263.667 426.569 221.614 490.476C221.583 490.476 -16.249 452.862 56.1413 70.4598Z" fill="#054D56"/>
<path class="leaf" opacity="0.43" d="M65.2396 117.689C65.3613 118.481 65.5743 119.455 65.7569 120.367L66.3654 123.167L67.613 128.736L70.2299 139.874C72.0252 147.269 73.9422 154.664 75.8897 162.028C79.7846 176.757 83.9229 191.425 88.3656 206.002C97.3117 235.125 106.988 264.035 118.216 292.306C123.907 306.426 129.627 320.516 135.926 334.362C142.225 348.208 148.858 361.902 156.039 375.323C170.25 402.194 186.499 428.06 205.517 451.858C205.791 452.193 205.73 452.649 205.395 452.923C205.091 453.167 204.634 453.136 204.361 452.832C194.289 441.329 185.069 429.065 176.396 416.466C167.815 403.776 159.995 390.599 152.51 377.24C137.873 350.338 125.154 322.463 114.017 293.949C108.418 279.707 103.306 265.282 98.4071 250.827C93.508 236.342 88.9133 221.765 84.7749 207.067C80.6062 192.368 76.62 177.609 73.0902 162.759C71.3254 155.333 69.6518 147.878 68.039 140.391C67.2479 136.648 66.4567 132.905 65.7569 129.162L64.7223 123.532L64.2354 120.702C64.0833 119.728 63.9007 118.876 63.8094 117.75C63.779 117.355 64.0529 116.99 64.4789 116.929C64.8744 116.898 65.2091 117.172 65.27 117.537L65.2396 117.689Z" fill="white"/>
<path xmlns="http://www.w3.org/2000/svg" class="leaf" d="M112.739 1.01515C157.683 30.2598 412.251 211.206 285.393 480.616C285.393 480.616 87.1484 404.659 105.71 4.60607C105.893 1.07602 109.818 -0.902032 112.739 1.01515Z" fill="#054D56"/>
<path class="leaf" opacity="0.43" d="M131.301 51.5924C136.748 58.8047 141.981 66.1691 147.124 73.5639C152.266 80.9892 157.317 88.445 162.277 95.992C172.197 111.086 181.721 126.393 190.881 141.944C209.168 173.045 226.026 205.059 240.723 238.046C255.359 271.034 267.927 305.056 276.69 340.174C278.911 348.939 280.798 357.794 282.441 366.68C282.837 368.902 283.263 371.123 283.628 373.375L284.693 380.07C285.301 384.544 285.971 389.017 286.427 393.521C288.466 411.506 288.923 429.704 287.614 447.78C287.553 448.541 286.884 449.119 286.123 449.058C285.362 448.998 284.784 448.328 284.845 447.567C286.214 429.674 285.819 411.658 283.871 393.795C283.445 389.321 282.806 384.878 282.198 380.405L281.163 373.74C280.828 371.519 280.402 369.297 280.007 367.106C278.394 358.251 276.568 349.456 274.378 340.722C265.797 305.756 253.412 271.795 238.928 238.837C224.383 205.88 207.708 173.866 189.542 142.735C180.443 127.184 170.98 111.847 161.152 96.7223C156.222 89.1753 151.232 81.6892 146.12 74.2639C141.008 66.8386 135.804 59.4742 130.388 52.2923C130.205 52.0489 130.236 51.6533 130.51 51.4707C130.753 51.2881 131.118 51.3489 131.301 51.5924Z" fill="white"/>
<path d="M508.041 487.25H414.503V283.968H519.909V475.412C519.909 481.955 514.614 487.25 508.041 487.25Z" fill="#E2F3FA"/>
<path d="M534.027 301.527H409.482L386.691 209.928H507.372L538.957 293.858C540.6 297.449 537.983 301.527 534.027 301.527Z" fill="#4C9EAC"/>
<path d="M508.011 211.175L379.662 214.614L376.254 203.324L499.034 201.133C503.629 201.133 507.372 203.872 507.372 207.219L508.011 211.175Z" fill="#364A4C"/>
<g opacity="0.89">
<path opacity="0.89" d="M494.226 432.047H440.824C438.937 432.047 437.416 430.526 437.416 428.639V342.609C437.416 340.722 438.937 339.201 440.824 339.201H494.226C496.113 339.201 497.634 340.722 497.634 342.609V428.639C497.634 430.526 496.113 432.047 494.226 432.047Z" fill="white"/>
<g opacity="0.89">
<path opacity="0.89" d="M463.28 427.026H443.684C442.649 427.026 441.797 426.174 441.797 425.139V346.109C441.797 345.074 442.649 344.222 443.684 344.222H463.28C464.315 344.222 465.167 345.074 465.167 346.109V425.139C465.197 426.174 464.345 427.026 463.28 427.026Z" fill="#54A0AE"/>
<path opacity="0.89" d="M491.336 427.026H471.739C470.705 427.026 469.853 426.174 469.853 425.139V346.109C469.853 345.074 470.705 344.222 471.739 344.222H491.336C492.37 344.222 493.222 345.074 493.222 346.109V425.139C493.253 426.174 492.401 427.026 491.336 427.026Z" fill="#54A0AE"/>
</g>
</g>
<path d="M90.8608 487.25H188.02V283.968H82.6145V479.003C82.6145 483.568 86.2964 487.25 90.8608 487.25Z" fill="#E2F3FA"/>
<path d="M68.4955 301.527H193.041L217.262 209.928H95.1512L63.5964 293.858C61.9228 297.449 64.5397 301.527 68.4955 301.527Z" fill="#54A0AE"/>
<path d="M95.1512 211.175L232.386 212.119L232.964 201.133H104.158C99.1983 201.133 95.1817 203.872 95.1817 207.219V211.175H95.1512Z" fill="#364A4C"/>
<g opacity="0.89">
<path opacity="0.89" d="M108.297 432.047H161.699C163.586 432.047 165.107 430.526 165.107 428.639V342.609C165.107 340.722 163.586 339.201 161.699 339.201H108.297C106.41 339.201 104.888 340.722 104.888 342.609V428.639C104.888 430.526 106.41 432.047 108.297 432.047Z" fill="white"/>
<g opacity="0.89">
<path opacity="0.89" d="M139.243 427.026H158.839C159.874 427.026 160.726 426.174 160.726 425.139V346.109C160.726 345.074 159.874 344.222 158.839 344.222H139.243C138.208 344.222 137.356 345.074 137.356 346.109V425.139C137.326 426.174 138.178 427.026 139.243 427.026Z" fill="#54A0AE"/>
<path opacity="0.89" d="M111.187 427.026H130.783C131.818 427.026 132.67 426.174 132.67 425.139V346.109C132.67 345.074 131.818 344.222 130.783 344.222H111.187C110.153 344.222 109.301 345.074 109.301 346.109V425.139C109.27 426.174 110.122 427.026 111.187 427.026Z" fill="#54A0AE"/>
</g>
</g>
<path d="M299.512 156.825C299.512 156.825 156.618 264.704 153.057 264.704V486.368C153.057 491.815 157.47 496.227 162.916 496.227H438.907C442.771 496.227 445.905 493.093 445.905 489.228V264.704L299.512 156.825Z" fill="#E2F3FA"/>
<path d="M338.37 487.25H247.539V473.738C247.539 472.673 248.391 471.821 249.456 471.821H336.452C337.518 471.821 338.37 472.673 338.37 473.738V487.25Z" fill="#054D56"/>
<path d="M338.37 497.08H247.539V491.054C247.539 485.881 251.738 481.681 256.911 481.681H328.967C334.14 481.681 338.339 485.881 338.339 491.054V497.08H338.37Z" fill="#54A0AE"/>
<path d="M323.946 471.852H261.962V361.75C261.962 355.755 266.801 350.917 272.795 350.917H313.114C319.108 350.917 323.946 355.755 323.946 361.75V471.852Z" fill="#54A0AE"/>
<path opacity="0.51" d="M319.564 342.792H266.344C263.94 342.792 261.962 340.844 261.962 338.41V334.575C261.962 332.262 263.727 330.376 266.04 330.223L319.26 326.511C321.786 326.328 323.946 328.337 323.946 330.863V338.379C323.946 340.844 321.999 342.792 319.564 342.792Z" fill="white"/>
<path d="M373.15 289.08H372.572C357.266 289.08 343.877 299.914 343.877 315.221V342.792H373.18V289.08H373.15Z" fill="#54A0AE"/>
<path d="M343.877 350.947V432.047C343.877 434.786 347.072 439.016 349.811 439.016H373.18V350.947H343.877Z" fill="#54A0AE"/>
<path d="M381.153 289.08H379.662V342.792H408.965V315.221C408.965 299.914 396.458 289.08 381.153 289.08Z" fill="#54A0AE"/>
<path d="M379.662 439.016H403.913C406.652 439.016 408.965 434.786 408.965 432.047V350.947H379.662V439.016Z" fill="#54A0AE"/>
<path d="M211.785 289.08H211.207C195.901 289.08 182.513 299.914 182.513 315.221V342.792H211.816V289.08H211.785Z" fill="#54A0AE"/>
<path d="M182.513 350.947V432.047C182.513 434.786 185.708 439.016 188.446 439.016H211.816V350.947H182.513Z" fill="#54A0AE"/>
<path d="M219.788 289.08H218.297V342.792H247.6V315.221C247.6 299.914 235.094 289.08 219.788 289.08Z" fill="#54A0AE"/>
<path d="M218.297 439.016H242.549C245.287 439.016 247.6 434.786 247.6 432.047V350.947H218.297V439.016Z" fill="#54A0AE"/>
<path d="M411.521 444.068H340.986C336.939 444.068 333.653 440.781 333.653 436.734V314.612C333.653 295.288 349.354 279.585 368.677 279.585H383.83C403.153 279.585 418.854 295.288 418.854 314.612V436.734C418.854 440.781 415.537 444.068 411.521 444.068ZM368.677 280.285C349.75 280.285 334.322 295.684 334.322 314.642V436.764C334.322 440.446 337.305 443.429 340.986 443.429H411.521C415.203 443.429 418.185 440.446 418.185 436.764V314.642C418.185 295.714 402.788 280.285 383.83 280.285H368.677Z" fill="white"/>
<path d="M250.156 444.068H179.652C175.605 444.068 172.319 440.781 172.319 436.734V314.612C172.319 295.288 188.02 279.585 207.343 279.585H222.496C241.819 279.585 257.52 295.288 257.52 314.612V436.734C257.489 440.781 254.203 444.068 250.156 444.068ZM207.343 280.285C188.416 280.285 172.988 295.684 172.988 314.642V436.764C172.988 440.446 175.97 443.429 179.652 443.429H250.187C253.868 443.429 256.85 440.446 256.85 436.764V314.642C256.85 295.714 241.453 280.285 222.496 280.285H207.343Z" fill="white"/>
<path d="M264.153 471.852H262.662C262.084 471.852 261.597 471.365 261.597 470.786V351.83C261.597 351.343 261.993 350.917 262.51 350.917H264.153V471.852Z" fill="#7D97F4"/>
<path d="M387.847 159.168H363.626V198.607H387.847V159.168Z" fill="#54A0AE"/>
<path d="M395.85 165.559H356.688V160.811C356.688 156.733 359.974 153.447 364.052 153.447H388.486C392.563 153.447 395.85 156.733 395.85 160.811V165.559Z" fill="#54A0AE"/>
<path d="M144.081 276.025L299.512 156.825L447.031 271.278C452.387 275.447 460.268 272.525 461.607 265.861L463.676 255.727L299.481 130.654L140.582 252.045C137.721 254.206 136.717 258.04 138.056 261.357L144.081 276.025Z" fill="#364A4C"/>
<path xmlns="http://www.w3.org/2000/svg" class="para" d="M420.071 197.025L419.645 196.69L299.116 91.4273L299.907 90.5143L420.041 195.412L534.332 87.6842L535.184 88.5363L420.071 197.025Z" fill="#054D56"/>
<path xmlns="http://www.w3.org/2000/svg" class="para" d="M419.98 236.19L418.793 236.159L419.463 196.203L418.793 85.28H419.98L420.649 196.233L419.98 236.19Z" fill="#054D56"/>
<path xmlns="http://www.w3.org/2000/svg" class="para" d="M420.041 199.824L361.526 92.614L362.591 92.0358L420.041 197.329L477.643 92.0358L478.677 92.614L420.041 199.824Z" fill="#054D56"/>
<path xmlns="http://www.w3.org/2000/svg" class="para" d="M536.675 90.9706L506.672 75.4505L477.338 94.592L448.218 72.9247L420.071 94.592L392.959 73.929L362.195 94.0746L332.436 75.4201L297.29 93.9529C303.863 67.3862 328.937 4.91028 419.371 4.91028C506.611 4.91028 530.315 63.0041 536.675 90.9706Z" fill="#FAA741"/>
<path xmlns="http://www.w3.org/2000/svg" class="para" d="M332.375 75.4505C332.375 75.4505 354.101 7.58825 416.967 4.91028C416.967 4.91028 357.996 41.1847 362.135 94.1051C353.493 85.4321 332.375 75.4505 332.375 75.4505Z" fill="url(#paint0_linear)"/>
<path xmlns="http://www.w3.org/2000/svg" class="para" d="M420.041 94.6224L419.371 4.91028C419.371 4.91028 389.673 44.5626 392.929 73.9594C408.356 89.3577 420.041 94.6224 420.041 94.6224Z" fill="url(#paint1_linear)"/>
<path xmlns="http://www.w3.org/2000/svg" class="para" d="M419.371 4.91028C419.371 4.91028 447.792 41.5194 448.187 72.9552L477.308 94.6224C477.338 94.6224 489.601 35.4635 419.371 4.91028Z" fill="url(#paint2_linear)"/>
<path xmlns="http://www.w3.org/2000/svg" class="para" d="M421.38 5.245C421.38 5.245 498.852 30.1075 506.641 75.4505L536.644 90.9706C536.675 90.9706 524.534 6.58398 421.38 5.245Z" fill="url(#paint3_linear)"/>
<path xmlns="http://www.w3.org/2000/svg" class="para" d="M401.297 203.08C401.297 203.08 380.787 174.444 391.468 176.696C402.149 178.948 403.274 184.852 415.324 178.37C427.405 171.919 430.204 166.015 432.456 174.718C434.707 183.422 432.456 186.526 441.706 184.822C450.957 183.148 452.934 185.674 438.329 200.25C422.627 200.281 401.297 203.08 401.297 203.08Z" fill="#54A0AE"/>
<path xmlns="http://www.w3.org/2000/svg" class="para" d="M399.806 205.363C399.806 205.363 336.544 260.292 355.258 305.604C355.258 305.604 364.995 334.362 417.789 334.362C470.583 334.362 474.326 314.977 479.925 304.874C484.428 290.267 497.33 271.399 438.359 205.363H399.806Z" fill="#054D56"/>
<path xmlns="http://www.w3.org/2000/svg" class="para" d="M441.737 203.111C441.737 204.571 440.55 205.789 439.059 205.789H399.197C397.736 205.789 396.519 204.602 396.519 203.111V202.715C396.519 201.254 397.706 200.037 399.197 200.037H439.059C440.519 200.037 441.737 201.224 441.737 202.715V203.111Z" fill="#364A4C"/>
<path xmlns="http://www.w3.org/2000/svg" class="para" d="M416.785 303.048V297.844C411.368 297.631 405.983 296.353 402.179 294.679C400.81 294.071 400.11 292.549 400.505 291.119L401.814 286.28C402.301 284.515 404.248 283.572 405.922 284.302C409.695 285.885 414.381 287.132 419.432 287.132C424.666 287.132 428.561 285.367 428.561 281.715C428.561 278.429 425.548 276.481 418.276 274.534C407.9 271.703 400.445 267.169 400.445 258.04C400.445 249.793 406.469 243.493 416.937 241.82V236.616C416.937 234.942 418.306 233.573 419.98 233.573H423.053C424.727 233.573 426.096 234.942 426.096 236.616V241.302C431.117 241.515 434.768 242.367 437.689 243.372C439.181 243.889 440.002 245.502 439.576 247.023L438.359 251.497C437.902 253.232 436.046 254.175 434.373 253.536C431.695 252.532 427.922 251.466 423.023 251.466C416.815 251.466 415.05 254.023 415.05 256.336C415.05 259.166 418.763 261.113 426.826 263.609C438.359 267.078 443.136 271.856 443.136 280.468C443.136 288.35 437.294 295.44 425.944 297.236V303.078C425.944 304.752 424.575 306.122 422.901 306.122H419.828C418.154 306.091 416.785 304.752 416.785 303.048Z" fill="#FAA741"/>
<path d="M148.706 318.599C148.706 318.599 145.45 312.269 148.493 310.382C151.536 308.495 154.001 311.295 155.218 312.725C156.435 314.125 152.327 319.664 151.232 320.12C150.136 320.546 148.706 318.599 148.706 318.599Z" fill="url(#paint4_linear)"/>
<path d="M152.023 317.503C152.023 317.503 141.403 345.409 159.874 356.395C162.49 357.947 163.221 361.385 161.547 363.942C161.182 364.489 160.786 365.037 160.33 365.585C158.2 368.141 154.275 368.172 152.084 365.615C146.15 358.677 136.139 342.031 148.95 318.386L152.023 317.503Z" fill="url(#paint5_linear)"/>
<path d="M170.158 431.926L156.496 428.091L153.057 447.72C153.057 447.72 147.489 447.811 142.925 450.641C138.36 453.471 122.172 468.443 122.172 468.443L119.342 467.804L118.247 468.504L116.664 480.525L121.198 474.134C121.929 473.13 123.876 471.547 123.846 471.456C132.579 467.317 153.575 455.327 159.174 452.132C160.086 451.615 160.786 450.854 161.273 449.911L170.158 431.926Z" fill="url(#paint6_linear)"/>
<path d="M169.246 489.38C169.124 489.38 169.033 489.38 168.911 489.38C169.428 483.05 171.741 455.266 174.053 444.828C176.67 433.051 170.128 409.467 170.128 409.467L158.352 421.244L164.894 443.52C160.421 450.245 165.625 489.684 165.503 489.654V489.745L163.799 492.089L164.012 493.367L174.449 499.514L170.341 492.849C169.702 491.815 169.337 490.628 169.246 489.38Z" fill="url(#paint7_linear)"/>
<path d="M175.149 500.518H171.832C171.223 500.518 170.615 500.244 170.25 499.727C169.215 498.388 167.055 495.741 166.02 495.68C164.62 495.588 164.803 500.518 164.803 500.518H164.012L163.038 494.402C162.795 492.85 163.555 491.328 164.925 490.628C164.925 490.628 165.229 492.971 166.963 494.006C168.667 495.041 173.962 498.753 173.962 498.753C173.962 498.753 174.601 498.662 175.301 498.784C176.366 498.966 176.214 500.518 175.149 500.518Z" fill="#054D56"/>
<path d="M116.025 481.529L114.717 478.455C114.474 477.877 114.504 477.238 114.808 476.69C115.63 475.199 117.212 472.186 116.877 471.213C116.421 469.904 111.948 472.004 111.948 472.004L111.644 471.304L116.877 467.987C118.186 467.165 119.89 467.257 121.107 468.261C121.107 468.261 119.068 469.478 118.794 471.456C118.521 473.434 117.182 479.733 117.182 479.733C117.182 479.733 117.516 480.281 117.669 480.981C117.942 482.046 116.451 482.503 116.025 481.529Z" fill="#054D56"/>
<path d="M173.141 389.565C173.141 389.565 172.745 391.939 173.323 398.421C173.901 404.902 176.579 420.149 176.031 434.725C176.031 434.725 168.363 436.521 155.035 435.669C155.035 435.669 149.406 412.906 150.775 404.263C152.145 395.621 159.569 389.413 159.569 389.413L173.141 389.565Z" fill="#054D56"/>
<path d="M167.45 346.169L168.394 357.186H159.508L161.699 340.387L167.45 346.169Z" fill="url(#paint8_linear)"/>
<path d="M156.861 355.664C159.934 355.481 166.811 355.177 171.68 355.451C174.236 355.603 176.396 357.429 176.914 359.955L178.1 365.646C178.557 367.776 178.466 369.967 177.918 372.036L173.141 389.534C173.141 389.534 168.911 392.091 159.6 389.352C159.6 389.352 151.414 369.845 154.761 357.368C155.005 356.425 155.857 355.725 156.861 355.664Z" fill="url(#paint9_linear)"/>
<path d="M171.224 333.449C171.528 333.632 174.053 342.487 171.954 346.169C169.854 349.882 163.434 345.713 161.699 340.357C159.965 335.032 162.764 328.458 171.224 333.449Z" fill="url(#paint10_linear)"/>
<path d="M154.609 340.388C153.179 347.448 148.402 345.5 145.024 348.634C139.547 353.717 131.727 348.482 124.12 353.29C118.642 356.76 115.995 365.646 118.612 372.828C122.263 382.779 134.739 386.857 141.19 383.844C147.367 380.953 146.485 372.28 154.792 368.932C158.322 367.502 160.056 368.445 162.186 366.315C165.898 362.633 164.894 355.451 164.499 352.712C163.677 346.717 161.669 345.652 162.612 343.005C164.468 337.892 173.171 338.957 173.901 335.336C174.571 332.049 168.241 325.811 162.308 326.785C153.179 328.306 155.248 337.223 154.609 340.388Z" fill="#054D56"/>
<path d="M121.381 371.154C121.259 371.154 121.168 371.093 121.138 370.971C119.951 366.102 120.499 362.085 122.72 359.072C126.432 354.082 133.613 353.564 133.674 353.564C133.796 353.534 133.918 353.656 133.918 353.777C133.918 353.899 133.826 354.021 133.705 354.021C133.644 354.021 126.676 354.508 123.115 359.346C120.985 362.237 120.468 366.102 121.624 370.849C121.655 370.971 121.564 371.123 121.442 371.154C121.411 371.154 121.411 371.154 121.381 371.154Z" fill="url(#paint11_linear)"/>
<path d="M144.933 375.627H144.902C144.842 375.597 144.811 375.536 144.811 375.475C145.968 371.093 147.976 368.019 150.775 366.406C152.814 365.22 154.731 365.128 156.435 365.007C158.078 364.915 159.478 364.824 160.604 363.82C162.947 361.72 162.825 356.729 160.208 348.908C160.178 348.847 160.208 348.787 160.269 348.756C160.33 348.726 160.391 348.756 160.421 348.847C163.069 356.76 163.19 361.872 160.756 364.002C159.569 365.067 158.109 365.159 156.435 365.25C154.761 365.341 152.875 365.463 150.867 366.619C148.098 368.202 146.12 371.215 144.994 375.536C145.024 375.597 144.963 375.627 144.933 375.627Z" fill="url(#paint12_linear)"/>
<path d="M158.017 338.622H157.987C157.926 338.592 157.896 338.531 157.926 338.47C158.839 335.762 161.456 336.157 164.225 336.583C165.99 336.857 167.815 337.131 169.337 336.675C170.493 336.34 171.163 335.792 171.376 335.092C171.71 333.906 170.524 332.567 170.524 332.536C170.493 332.475 170.493 332.414 170.524 332.354C170.585 332.323 170.645 332.323 170.706 332.354C170.767 332.414 171.984 333.784 171.619 335.123C171.406 335.914 170.645 336.492 169.428 336.857C167.846 337.344 165.99 337.04 164.194 336.766C161.395 336.34 158.991 335.975 158.139 338.47C158.109 338.592 158.078 338.622 158.017 338.622Z" fill="url(#paint13_linear)"/>
<path d="M192.767 322.281C192.767 322.281 197.484 316.955 194.988 314.369C192.493 311.782 189.45 313.912 187.899 314.977C186.377 316.042 188.964 322.403 189.907 323.133C190.881 323.833 192.767 322.281 192.767 322.281Z" fill="url(#paint14_linear)"/>
<path d="M189.816 320.394C189.816 320.394 193.163 350.065 172.532 356.121C169.611 356.973 168.059 360.137 169.033 363.028C169.246 363.637 169.489 364.276 169.793 364.915C171.224 367.928 175.027 368.932 177.766 366.985C185.221 361.75 199.066 348.117 192.554 322.037L189.816 320.394Z" fill="url(#paint15_linear)"/>
<path d="M204.787 434.847C204.787 434.847 202.748 431.804 200.496 429.004C199.614 427.908 198.092 427.665 197.118 428.487C193.863 431.256 186.925 437.19 184.643 439.533C184.308 439.899 184.46 440.507 184.916 440.781C185.312 440.994 185.769 441.055 186.195 440.933L202.504 436.308L204.787 434.847Z" fill="#054D56"/>
<path d="M206.521 436.125L203.204 433.295C203.204 433.295 200.101 434.299 199.675 436.825L203.874 439.533L206.521 436.125Z" fill="url(#paint16_linear)"/>
<path d="M280.372 360.837C285.575 349.182 290.474 331.745 284.754 314.307L281.437 310.99C281.437 310.99 281.437 338.288 274.651 351.83C276.568 354.842 278.455 357.855 280.372 360.837Z" fill="url(#paint17_linear)"/>
<path d="M280.646 305.787L279.398 307.673C279.064 308.191 278.972 308.83 279.155 309.408C279.672 310.96 280.798 313.973 282.411 315.586C284.632 317.807 286.853 312.482 287.31 310.686C287.766 308.891 284.632 304.448 283.75 303.565C282.867 302.683 279.307 303.109 280.646 305.787Z" fill="url(#paint18_linear)"/>
<path d="M263.575 489.41C263.575 489.41 262.936 493.032 262.632 496.623C262.51 498.023 263.575 499.24 265.005 499.301C269.783 499.514 280.007 499.879 283.658 499.727C284.206 499.696 284.571 499.149 284.358 498.631C284.176 498.205 283.871 497.84 283.445 497.657L266.557 489.897L263.575 489.41Z" fill="#054D56"/>
<path d="M263.058 487.28L263.575 491.602C263.575 491.602 266.527 492.971 268.535 491.419L267.318 486.581L263.058 487.28Z" fill="url(#paint19_linear)"/>
<path d="M263.454 405.815C263.241 406.941 262.267 462.296 268.17 487.098C268.261 487.493 268.048 487.919 267.683 488.072C266.77 488.437 265.005 488.984 262.875 489.045C262.206 489.076 261.628 488.65 261.445 488.011C259.741 482.259 248.148 448.967 247.083 421.427C245.896 390.66 251.282 405.815 251.282 405.815H263.454Z" fill="#054D56"/>
<path d="M237.893 406.789C232.933 419.296 231.321 421.244 229.099 435.547C226.452 452.68 213.489 440.842 206.551 435.273C205.669 434.573 203.083 437.099 202.839 440.629C202.504 445.254 230.469 467.165 238.015 451.675C242.853 441.785 244.192 430.647 247.387 424.5C247.783 423.739 248.452 423.131 249.243 422.796L259.102 418.566L261.902 408.889L237.893 406.789Z" fill="#054D56"/>
<path d="M232.477 362.359C227.274 350.704 222.375 333.266 228.095 315.829L231.412 312.512C231.412 312.512 231.412 339.809 238.198 353.351C236.311 356.364 234.424 359.377 232.477 362.359Z" fill="url(#paint20_linear)"/>
<path d="M263.454 358.19H247.113C245.47 358.19 243.888 357.551 242.701 356.425C241.18 354.964 239.232 352.53 237.832 348.665C237.619 348.087 236.98 347.752 236.402 347.934C234.303 348.543 229.708 350.339 227.304 354.477C227.091 354.873 227.091 355.36 227.334 355.725L237.528 371.488L236.524 410.38C236.524 410.38 262.115 414.397 265.614 410.38L269.113 374.745C269.113 374.745 281.65 367.228 285.18 355.177L274.651 349.152C274.651 349.152 273.434 349.213 272.369 352.012C271 355.725 267.409 358.19 263.454 358.19Z" fill="url(#paint21_linear)"/>
<path d="M249.487 346.291L249.122 358.89C249.091 359.711 249.608 360.411 250.369 360.685C251.951 361.202 254.781 361.842 257.946 361.172C258.889 360.959 259.498 360.046 259.346 359.072L257.611 349.152L249.487 346.291Z" fill="url(#paint22_linear)"/>
<path d="M258.128 334.758C258.25 334.91 262.054 345.256 263.727 349.821C264.153 350.977 263.514 352.256 262.358 352.621L258.646 353.321C256.211 353.777 253.777 352.469 252.803 350.186L248.361 345.013C245.957 342.213 246.779 337.862 250.065 336.188C253.321 334.514 256.881 333.236 258.128 334.758Z" fill="url(#paint23_linear)"/>
<path d="M250.795 346.169L251.86 345.652C251.86 345.652 247.631 338.805 252.377 338.257C257.124 337.74 261.354 336.675 261.354 334.027C261.354 331.38 261.354 326.632 255.542 328.763C249.73 330.862 250.278 334.575 247.113 335.092C243.949 335.61 241.301 336.157 242.366 339.322C243.431 342.487 245.531 344.587 244.466 345.652C243.401 346.687 248.148 351.951 250.795 346.169Z" fill="#054D56"/>
<path d="M251.921 348.208C251.921 348.208 251.039 343.583 249.091 343.461C247.144 343.339 245.348 345.043 247.417 347.569C250.004 350.673 251.921 348.208 251.921 348.208Z" fill="url(#paint24_linear)"/>
<path d="M232.203 307.308L233.451 309.195C233.785 309.712 233.877 310.351 233.694 310.93C233.177 312.482 232.051 315.494 230.438 317.107C228.217 319.329 225.996 314.003 225.539 312.208C225.083 310.412 228.217 305.969 229.099 305.087C229.982 304.174 233.542 304.63 232.203 307.308Z" fill="url(#paint25_linear)"/>
<path d="M258.615 334.91C258.554 334.91 258.494 334.849 258.463 334.788C258.433 334.697 258.494 334.636 258.585 334.605C258.615 334.605 259.193 334.483 259.528 333.844C259.924 333.114 259.802 331.988 259.193 330.558C259.163 330.467 259.193 330.406 259.285 330.375C259.376 330.345 259.437 330.375 259.467 330.467C260.106 331.988 260.198 333.175 259.772 334.027C259.407 334.757 258.676 334.91 258.615 334.91C258.646 334.91 258.646 334.91 258.615 334.91Z" fill="url(#paint26_linear)"/>
<defs>
<linearGradient id="paint0_linear" x1="375.119" y1="20.158" x2="376.462" y2="-42.3325" gradientUnits="userSpaceOnUse">
<stop stop-color="#E1473D"/>
<stop offset="1" stop-color="#E9605A"/>
</linearGradient>
<linearGradient id="paint1_linear" x1="413.59" y1="51.8682" x2="392.422" y2="128.805" gradientUnits="userSpaceOnUse">
<stop stop-color="#E1473D"/>
<stop offset="1" stop-color="#E9605A"/>
</linearGradient>
<linearGradient id="paint2_linear" x1="447.56" y1="52.6653" x2="430.119" y2="116.056" gradientUnits="userSpaceOnUse">
<stop stop-color="#E1473D"/>
<stop offset="1" stop-color="#E9605A"/>
</linearGradient>
<linearGradient id="paint3_linear" x1="479.094" y1="47.8926" x2="465.016" y2="99.0632" gradientUnits="userSpaceOnUse">
<stop stop-color="#E1473D"/>
<stop offset="1" stop-color="#E9605A"/>
</linearGradient>
<linearGradient id="paint4_linear" x1="150.583" y1="305.767" x2="152.622" y2="326.964" gradientUnits="userSpaceOnUse">
<stop stop-color="#A22B25"/>
<stop offset="1" stop-color="#C0423C"/>
</linearGradient>
<linearGradient id="paint5_linear" x1="163.028" y1="375.42" x2="131.992" y2="290.088" gradientUnits="userSpaceOnUse">
<stop stop-color="#A22B25"/>
<stop offset="1" stop-color="#C0423C"/>
</linearGradient>
<linearGradient id="paint6_linear" x1="162.47" y1="431.155" x2="128.227" y2="473.504" gradientUnits="userSpaceOnUse">
<stop stop-color="#A22B25"/>
<stop offset="1" stop-color="#C0423C"/>
</linearGradient>
<linearGradient id="paint7_linear" x1="238.965" y1="384.124" x2="150.957" y2="476.629" gradientUnits="userSpaceOnUse">
<stop stop-color="#A22B25"/>
<stop offset="1" stop-color="#C0423C"/>
</linearGradient>
<linearGradient id="paint8_linear" x1="159.495" y1="348.787" x2="168.401" y2="348.787" gradientUnits="userSpaceOnUse">
<stop stop-color="#A22B25"/>
<stop offset="1" stop-color="#C0423C"/>
</linearGradient>
<linearGradient id="paint9_linear" x1="9.76331" y1="602.848" x2="-28.9837" y2="660.513" gradientUnits="userSpaceOnUse">
<stop stop-color="#FF928E"/>
<stop offset="1" stop-color="#FE7062"/>
</linearGradient>
<linearGradient id="paint10_linear" x1="174.328" y1="348.784" x2="157.02" y2="323.478" gradientUnits="userSpaceOnUse">
<stop stop-color="#A22B25"/>
<stop offset="1" stop-color="#C0423C"/>
</linearGradient>
<linearGradient id="paint11_linear" x1="120.537" y1="362.356" x2="133.945" y2="362.356" gradientUnits="userSpaceOnUse">
<stop stop-color="#DAE3FE"/>
<stop offset="1" stop-color="#E9EFFD"/>
</linearGradient>
<linearGradient id="paint12_linear" x1="144.802" y1="362.186" x2="162.518" y2="362.186" gradientUnits="userSpaceOnUse">
<stop stop-color="#DAE3FE"/>
<stop offset="1" stop-color="#E9EFFD"/>
</linearGradient>
<linearGradient id="paint13_linear" x1="157.899" y1="335.496" x2="171.674" y2="335.496" gradientUnits="userSpaceOnUse">
<stop stop-color="#DAE3FE"/>
<stop offset="1" stop-color="#E9EFFD"/>
</linearGradient>
<linearGradient id="paint14_linear" x1="194.131" y1="309.385" x2="186.891" y2="329.41" gradientUnits="userSpaceOnUse">
<stop stop-color="#A22B25"/>
<stop offset="1" stop-color="#C0423C"/>
</linearGradient>
<linearGradient id="paint15_linear" x1="164.776" y1="373.763" x2="216.035" y2="298.815" gradientUnits="userSpaceOnUse">
<stop stop-color="#A22B25"/>
<stop offset="1" stop-color="#C0423C"/>
</linearGradient>
<linearGradient id="paint16_linear" x1="205.092" y1="434.569" x2="201.077" y2="438.314" gradientUnits="userSpaceOnUse">
<stop stop-color="#FEBBBA"/>
<stop offset="1" stop-color="#FF928E"/>
</linearGradient>
<linearGradient id="paint17_linear" x1="284.359" y1="309.012" x2="277.826" y2="374.524" gradientUnits="userSpaceOnUse">
<stop stop-color="#FEBBBA"/>
<stop offset="1" stop-color="#FF928E"/>
</linearGradient>
<linearGradient id="paint18_linear" x1="283.284" y1="308.904" x2="276.751" y2="374.417" gradientUnits="userSpaceOnUse">
<stop stop-color="#FEBBBA"/>
<stop offset="1" stop-color="#FF928E"/>
</linearGradient>
<linearGradient id="paint19_linear" x1="263.066" y1="489.395" x2="268.555" y2="489.395" gradientUnits="userSpaceOnUse">
<stop stop-color="#FEBBBA"/>
<stop offset="1" stop-color="#FF928E"/>
</linearGradient>
<linearGradient id="paint20_linear" x1="232.398" y1="364.267" x2="234" y2="428.345" gradientUnits="userSpaceOnUse">
<stop stop-color="#FEBBBA"/>
<stop offset="1" stop-color="#FF928E"/>
</linearGradient>
<linearGradient id="paint21_linear" x1="-680.774" y1="-1018.85" x2="-642.028" y2="-961.187" gradientUnits="userSpaceOnUse">
<stop stop-color="#FF928E"/>
<stop offset="1" stop-color="#FE7062"/>
</linearGradient>
<linearGradient id="paint22_linear" x1="268.604" y1="320.221" x2="249.38" y2="364.674" gradientUnits="userSpaceOnUse">
<stop stop-color="#FEBBBA"/>
<stop offset="1" stop-color="#FF928E"/>
</linearGradient>
<linearGradient id="paint23_linear" x1="314.55" y1="377.122" x2="339.701" y2="391.637" gradientUnits="userSpaceOnUse">
<stop stop-color="#FEBBBA"/>
<stop offset="1" stop-color="#FF928E"/>
</linearGradient>
<linearGradient id="paint24_linear" x1="311.607" y1="382.221" x2="336.758" y2="396.736" gradientUnits="userSpaceOnUse">
<stop stop-color="#FEBBBA"/>
<stop offset="1" stop-color="#FF928E"/>
</linearGradient>
<linearGradient id="paint25_linear" x1="230.973" y1="364.302" x2="232.575" y2="428.381" gradientUnits="userSpaceOnUse">
<stop stop-color="#FEBBBA"/>
<stop offset="1" stop-color="#FF928E"/>
</linearGradient>
<linearGradient id="paint26_linear" x1="258.477" y1="332.638" x2="260.061" y2="332.638" gradientUnits="userSpaceOnUse">
<stop stop-color="#DAE3FE"/>
<stop offset="1" stop-color="#E9EFFD"/>
</linearGradient>
</defs>
</svg>