<svg width="125" height="71" viewBox="0 0 125 71" fill="none" xmlns="http://www.w3.org/2000/svg">
<g clip-path="url(#clip0)">
<path d="M5.44495 53.2786V28.4399H11.5966C13.7598 28.4399 15.3147 29.0507 16.2611 30.2044C17.2075 31.3581 17.6807 33.0547 17.6807 35.2943C17.6807 37.3303 17.1399 38.8912 16.1259 40.0449C15.1119 41.1986 13.557 41.7415 11.5966 41.7415H8.89259V53.2786H5.44495ZM8.89259 39.2305H10.4474C11.9346 39.2305 13.0162 38.959 13.557 38.4161C14.0978 37.8732 14.4359 36.8552 14.4359 35.2943C14.4359 34.6835 14.4359 34.1406 14.3683 33.7334C14.3683 33.3262 14.3007 32.919 14.1654 32.5797C14.0302 32.2403 13.895 31.9689 13.7598 31.7653C13.557 31.5617 13.3542 31.426 13.0838 31.2902C12.8134 31.1545 12.4078 31.0866 12.0022 31.0188C11.5966 30.9509 11.1234 30.9509 10.515 30.9509H8.89259V39.2305V39.2305Z" fill="#006171"/>
<path d="M19.9115 53.2787V35.4979H23.1563V38.0089C23.7647 36.9909 24.3732 36.2444 25.0492 35.8372C25.6576 35.43 26.4012 35.2264 27.0772 35.2264C27.28 35.2264 27.4828 35.2264 27.618 35.2264V38.8233C27.0096 38.6197 26.4012 38.484 25.8604 38.484C25.3196 38.484 24.8464 38.6197 24.4408 38.8233C24.0351 39.0948 23.6295 39.502 23.2239 40.1806V53.2787H19.9115Z" fill="#006171"/>
<path d="M34.5132 53.4823C33.4992 53.4823 32.6204 53.3465 31.9444 53.0072C31.2684 52.7357 30.7276 52.2607 30.322 51.6499C29.9164 51.0391 29.646 50.2926 29.5108 49.4782C29.3756 48.6638 29.308 47.6458 29.308 46.4242V42.3523C29.308 41.1307 29.3756 40.1128 29.5784 39.2305C29.7136 38.4161 30.0516 37.6696 30.3896 37.0588C30.7952 36.448 31.336 35.973 32.012 35.7015C32.688 35.43 33.5668 35.2943 34.5132 35.2943C35.1217 35.2943 35.7301 35.3622 36.2033 35.4979C36.6765 35.6336 37.0821 35.7694 37.4877 35.973C37.8257 36.1766 38.1637 36.448 38.3665 36.7874C38.5693 37.1267 38.8397 37.5339 38.9749 37.9411C39.1101 38.3483 39.2453 38.8233 39.3129 39.3662C39.3805 39.9092 39.4481 40.52 39.5157 41.0629C39.5157 41.6058 39.5833 42.2845 39.5833 43.031V44.4561H32.5528V46.8314C32.5528 46.8993 32.5528 46.9672 32.5528 47.035C32.5528 47.5101 32.5528 47.9173 32.5528 48.1209C32.5528 48.3923 32.5528 48.6638 32.6204 49.071C32.688 49.4782 32.688 49.7497 32.8232 49.9533C32.9584 50.1568 33.026 50.3604 33.1612 50.564C33.2964 50.7676 33.4992 50.9034 33.702 51.0391C33.9048 51.1748 34.1752 51.1748 34.5132 51.1748C35.1893 51.1748 35.7301 50.9034 35.9329 50.4283C36.2033 49.9533 36.3385 49.2067 36.3385 48.2566V47.1708H39.5157V47.8494C39.5157 51.582 37.8257 53.4823 34.5132 53.4823ZM32.5528 42.6916H36.3385V41.0629C36.3385 40.5878 36.3385 40.1806 36.2709 39.9092C36.2709 39.5698 36.2033 39.2984 36.1357 38.959C36.0681 38.6197 35.9329 38.4161 35.7977 38.2804C35.6625 38.0768 35.4597 38.0089 35.2569 37.8732C35.0541 37.8053 34.7837 37.7375 34.4456 37.7375C33.702 37.7375 33.1612 38.0089 32.8908 38.5519C32.6204 39.0948 32.4852 40.1806 32.4852 41.7415V42.6916H32.5528Z" fill="#006171"/>
<path d="M86.6335 53.2787V35.4979H89.8783V38.0089C90.4867 36.9909 91.0951 36.2444 91.7711 35.8372C92.3796 35.43 93.1232 35.2264 93.7992 35.2264C94.002 35.2264 94.2048 35.2264 94.34 35.2264V38.8233C93.7316 38.6197 93.1232 38.484 92.5824 38.484C92.0415 38.484 91.5684 38.6197 91.1627 38.8233C90.7571 39.0948 90.3515 39.502 89.9459 40.1806V53.2787H86.6335Z" fill="#006171"/>
<path d="M101.235 53.4823C100.221 53.4823 99.3425 53.3465 98.6665 53.0072C97.9904 52.7357 97.4496 52.2607 97.044 51.6499C96.6384 51.0391 96.368 50.2926 96.2328 49.4782C96.0976 48.6638 96.03 47.6458 96.03 46.4242V42.3523C96.03 41.1307 96.0976 40.1128 96.3004 39.2305C96.4356 38.4161 96.7736 37.6696 97.1116 37.0588C97.5172 36.448 98.0581 35.973 98.7341 35.7015C99.4101 35.43 100.289 35.2943 101.235 35.2943C101.844 35.2943 102.452 35.3622 102.925 35.4979C103.399 35.6336 103.804 35.7694 104.21 35.973C104.548 36.1766 104.886 36.448 105.089 36.7874C105.359 37.1267 105.562 37.5339 105.697 37.9411C105.832 38.3483 105.967 38.8233 106.035 39.3662C106.103 39.9092 106.17 40.52 106.238 41.0629C106.238 41.6058 106.305 42.2845 106.305 43.031V44.4561H99.3425V46.8314C99.3425 46.8993 99.3425 46.9672 99.3425 47.035C99.3425 47.5101 99.3425 47.9173 99.3425 48.1209C99.3425 48.3923 99.3425 48.6638 99.4101 49.071C99.4777 49.4782 99.4777 49.7497 99.6129 49.9533C99.6805 50.1568 99.8157 50.3604 99.9509 50.564C100.086 50.7676 100.289 50.9034 100.492 51.0391C100.694 51.1748 100.965 51.1748 101.303 51.1748C101.979 51.1748 102.52 50.9034 102.723 50.4283C102.993 49.9533 103.128 49.2067 103.128 48.2566V47.1708H106.305V47.8494C106.238 51.582 104.548 53.4823 101.235 53.4823ZM99.2749 42.6916H102.993V41.0629C102.993 40.5878 102.993 40.1806 102.925 39.9092C102.925 39.5698 102.858 39.2984 102.79 38.959C102.723 38.6197 102.587 38.4161 102.452 38.2804C102.317 38.0768 102.114 38.0089 101.911 37.8732C101.708 37.8053 101.438 37.7375 101.1 37.7375C100.356 37.7375 99.8157 38.0089 99.5453 38.5519C99.2749 39.0948 99.1397 40.1806 99.1397 41.7415V42.6916H99.2749Z" fill="#006171"/>
<path d="M114.012 53.4823C113.065 53.4823 112.254 53.3465 111.578 53.0072C110.902 52.6679 110.361 52.2607 109.956 51.6499C109.55 51.0391 109.28 50.3604 109.145 49.6139C108.942 48.8674 108.874 47.9173 108.874 46.8993V41.7415C108.874 40.7235 108.942 39.7734 109.145 39.0269C109.347 38.2804 109.618 37.6017 109.956 36.9909C110.294 36.3801 110.902 35.973 111.578 35.6336C112.254 35.2943 113.065 35.1586 114.012 35.1586C115.905 35.1586 117.189 35.7015 118 36.8552C118.811 37.9411 119.149 39.5698 119.149 41.7415V46.8993C119.149 49.0031 118.744 50.6319 118 51.7856C117.189 52.9393 115.905 53.4823 114.012 53.4823ZM114.012 51.107C114.282 51.107 114.553 51.0391 114.823 50.9712C115.026 50.9034 115.229 50.6998 115.364 50.4962C115.499 50.2926 115.567 50.089 115.702 49.8854C115.769 49.6818 115.837 49.4103 115.905 49.071C115.972 48.7317 115.972 48.3923 115.972 48.1887C115.972 47.9851 115.972 47.6458 115.972 47.1708V41.6058C115.972 41.1986 115.972 40.9271 115.972 40.7235C115.972 40.5199 115.972 40.2485 115.905 39.977C115.837 39.7056 115.837 39.3662 115.837 39.2305C115.769 39.0269 115.702 38.8233 115.634 38.6197C115.567 38.4161 115.431 38.2125 115.296 38.0768C115.161 37.9411 115.026 37.8732 114.823 37.8053C114.62 37.7375 114.417 37.6696 114.147 37.6696C113.877 37.6696 113.674 37.7375 113.471 37.8053C113.268 37.8732 113.133 38.0089 112.998 38.0768C112.863 38.2125 112.727 38.3482 112.66 38.6197C112.592 38.8912 112.525 39.0269 112.457 39.2305C112.389 39.4341 112.389 39.6377 112.389 39.977C112.389 40.3163 112.389 40.5878 112.322 40.7235C112.322 40.9271 112.322 41.1986 112.322 41.6058V47.1708C112.322 47.578 112.322 47.8494 112.322 48.053C112.322 48.2566 112.322 48.5281 112.389 48.7995C112.389 49.1389 112.457 49.4103 112.457 49.5461C112.457 49.6818 112.592 49.9532 112.66 50.1568C112.727 50.3604 112.863 50.564 112.998 50.6998C113.133 50.8355 113.268 50.9034 113.471 50.9712C113.539 51.0391 113.809 51.107 114.012 51.107Z" fill="#006171"/>
<path d="M64.3252 11.0663L64.3928 11.1341C64.9336 11.2699 65.3392 11.5413 65.6096 12.0842C67.6377 16.0883 69.5981 20.1602 71.6261 24.1643C71.8965 24.7751 72.2345 25.318 72.5049 25.9288C72.5049 25.9967 72.5725 26.0645 72.5725 26.0645C72.5725 26.0645 72.5725 26.0645 72.6401 26.0645C72.6401 25.9967 72.6401 25.9288 72.6401 25.8609C72.6401 25.4537 72.6401 24.9787 72.6401 24.5715C72.6401 24.3 72.8429 24.0964 73.1133 24.0964C74.1949 24.0964 75.209 24.0964 76.2906 24.0964C76.561 24.0964 76.6962 24.2322 76.6962 24.5036C76.6962 24.5715 76.6962 24.6394 76.6962 24.6394C76.6962 27.7612 76.6962 30.883 76.6962 34.0048C76.6962 34.1405 76.6962 34.2763 76.8314 34.412C78.589 37.941 80.3466 41.5379 82.1042 45.0669C82.1042 45.1347 82.1718 45.2026 82.1718 45.2705L82.1042 45.2026C79.8058 42.488 76.9666 40.452 73.7217 39.0268C72.5725 38.5518 71.4233 38.1446 70.2741 37.8731C70.1389 37.8731 70.1389 37.8053 70.0713 37.6695C69.5305 36.5837 68.9897 35.5657 68.4489 34.4799C67.0293 31.7652 65.6772 28.9827 64.2576 26.2681C64.2576 26.2003 64.19 26.1324 64.19 26.0645C60.9452 32.5118 57.7003 38.8911 54.5231 45.3383C54.5231 45.3383 54.5231 45.4062 54.4555 45.4062C54.4555 45.4062 54.4555 45.4062 54.4555 45.4741C55.4019 44.9311 56.3483 44.4561 57.2947 44.0489C58.2412 43.6417 59.2552 43.3024 60.3368 43.0309C60.3368 42.963 60.3368 42.8952 60.3368 42.8273C60.3368 41.9451 60.3368 41.0628 60.3368 40.2484C60.3368 40.1805 60.3368 40.1127 60.3368 40.0448C60.3368 39.8412 60.472 39.7055 60.6748 39.7055C60.7424 39.7055 60.7424 39.7055 60.81 39.7055C63.0408 39.7055 65.2716 39.7055 67.5701 39.7055C67.6377 39.7055 67.6377 39.7055 67.7053 39.7055C67.9081 39.7055 68.0433 39.8412 68.1109 40.0448C68.1109 40.1127 68.1109 40.1806 68.1109 40.1806C68.1109 40.9271 68.1109 41.6736 68.1109 42.4201C68.1109 42.488 68.1109 42.5558 68.1109 42.6237C68.2461 42.6237 68.3813 42.6916 68.5165 42.6916C70.9501 43.0988 73.2485 43.9131 75.4118 44.999C77.8454 46.2206 80.0762 47.7136 82.1718 49.4781C83.0506 50.2246 83.9295 51.039 84.7407 51.8534C84.8083 51.9213 84.8083 51.9213 84.8759 51.9891C84.6731 52.3963 84.3351 52.5999 83.8619 52.7357C83.7267 52.8035 83.5915 52.8035 83.3887 52.8035C82.1718 52.8035 80.955 52.8035 79.6706 52.8035C78.7242 52.8035 77.7778 52.8035 76.8314 52.8035C75.3442 52.8035 73.8569 52.8035 72.3697 52.8714C71.8289 52.8714 71.2881 52.8714 70.7473 52.8714C70.6797 52.8714 70.6797 52.8714 70.6121 52.8714C70.6121 52.8035 70.6121 52.8035 70.5445 52.8035C70.1389 51.1748 69.1249 50.021 67.7053 49.1388C66.8265 48.5959 65.8124 48.3244 64.7984 48.1887C63.1084 48.0529 61.486 48.3923 60.0664 49.3424C58.9172 50.1568 58.106 51.1748 57.6327 52.5321C57.6327 52.5999 57.5651 52.7357 57.5651 52.8035C57.4975 52.8035 57.4299 52.8035 57.3623 52.8035C56.0103 52.8035 54.7259 52.8035 53.3739 52.8035C50.6699 52.8035 47.9658 52.8035 45.2618 52.8035C45.1266 52.8035 44.9914 52.8035 44.8562 52.7357C44.1802 52.5999 43.7746 52.1927 43.6394 51.5141C43.6394 51.4462 43.5718 51.3784 43.5718 51.3105C43.5718 51.2426 43.5718 51.1069 43.5718 51.039C43.5718 50.9712 43.6394 50.9712 43.6394 50.9033C43.707 50.6997 43.7746 50.4961 43.8422 50.3604C44.6534 48.7316 45.397 47.1707 46.2082 45.6098C51.3459 35.2264 56.4835 24.7751 61.6212 14.3917C62.0268 13.5094 62.5 12.695 62.9056 11.8128C63.176 11.3377 63.514 10.9984 64.0548 10.9305C64.1224 10.9305 64.1224 10.9305 64.19 10.8627C64.1224 11.0663 64.2576 11.0663 64.3252 11.0663Z" fill="#006171"/>
</g>
<defs>
<clipPath id="clip0">
<rect width="125" height="71" fill="white"/>
</clipPath>
</defs>
</svg>
