<svg width="216" height="214" viewBox="0 0 216 214" fill="none" xmlns="http://www.w3.org/2000/svg"><style>.bounce { -webkit-animation: bounce 9s infinite ease-in-out alternate; animation: bounce 9s infinite ease-in-out alternate; } @-webkit-keyframes bounce { 0% { -webkit-transform: translate(0px, 0px); transform: translate(0px, 0px); } 50% { -webkit-transform: translate(0px, -25px); transform: translate(0px, -25px); } 100% { -webkit-transform: translate(0px, 0px); transform: translate(0px, 0px); } } @keyframes bounce { 0% { -webkit-transform: translate(0px, 0px); transform: translate(0px, 0px); } 50% { -webkit-transform: translate(0px, -25px); transform: translate(0px, -25px); } 100% { -webkit-transform: translate(0px, 0px); transform: translate(0px, 0px); } }</style>
<path class="bounce" d="M143.98 120.761C118.445 120.761 93.9304 120.761 68.7057 120.761C68.7057 107.609 68.7057 94.7842 68.7057 80.5175C66.1611 82.717 64.7704 84.0545 63.2318 85.2136C59.8734 87.7549 56.3967 87.8143 53.5266 84.6638C50.7748 81.6321 51.1446 78.1695 53.9408 75.3756C69.5638 59.7863 85.2312 44.2564 100.973 28.786C104.183 25.6206 107.852 25.5908 111.077 28.7563C126.819 44.2267 142.501 59.7565 158.109 75.331C161.112 78.3181 161.364 81.959 158.287 84.9907C155.269 87.9481 151.762 87.6806 148.537 84.9461C147.25 83.8464 146.037 82.6427 143.98 80.7404C143.98 94.591 143.98 107.505 143.98 120.761ZM105.944 41.3585C96.3123 51.4938 87.7907 60.2915 79.5353 69.342C78.2186 70.7835 77.5973 73.3247 77.5529 75.3904C77.3605 84.7232 77.4789 94.056 77.4937 103.404C77.4937 106.435 77.4937 109.452 77.4937 112.454C83.6778 112.454 88.9151 112.454 94.7145 112.454C94.7145 104.578 94.7145 97.0728 94.7145 89.4639C102.556 89.4639 109.835 89.4639 117.69 89.4639C117.69 97.3849 117.69 104.905 117.69 112.573C123.519 112.573 128.772 112.573 134.601 112.573C134.601 99.0493 134.63 85.8081 134.541 72.5668C134.541 71.6603 133.876 70.6052 133.21 69.9067C124.555 60.7671 115.841 51.7018 105.944 41.3585Z" fill="#FAA741"/>
<path d="M139.424 182.197C129.63 182.197 120.738 182.197 111.876 182.197C108.725 165.716 109.45 150.573 122.957 138.416C129.053 132.933 135.947 129.856 143.847 129.515C150.46 129.232 154.78 126.305 159.041 121.386C163.553 116.154 169.279 111.874 174.856 107.699C176.292 106.629 179.176 107.49 181.381 107.461C180.863 109.289 180.582 111.221 179.783 112.915C178.94 114.683 177.608 116.214 177.12 118.354C179.117 116.14 181.647 114.193 182.89 111.622C183.63 110.091 182.52 107.505 181.913 105.514C181.514 104.236 179.753 103.077 179.872 102.007C180.582 95.3341 181.41 88.6466 182.742 82.0631C183.156 79.9974 185.242 78.2735 186.559 76.401C187.225 76.5942 187.905 76.7725 188.571 76.9657C189.385 83.5195 190.006 90.1178 191.086 96.627C192.773 106.807 188.275 115.382 184.946 124.462C180.005 137.971 171.602 147.913 158.671 154.125C155.269 155.759 152.265 158.182 148.907 159.92C142.057 163.443 138.521 168.703 139.394 176.624C139.586 178.289 139.424 179.998 139.424 182.197Z" fill="#3F9CAD"/>
<path d="M44.354 129.217C40.2559 123.526 36.0838 117.908 32.1485 112.112C31.32 110.909 31.394 109.081 31.0389 107.55C32.6663 107.342 34.7523 106.406 35.8471 107.074C40.3299 109.839 44.6942 112.885 48.7479 116.259C51.0855 118.205 52.7425 120.984 54.7249 123.377C57.4619 126.706 60.7315 128.757 65.2734 128.95C79.6833 129.589 90.3206 136.529 97.4811 149.027C101.106 155.373 102.733 162.046 101.609 169.417C100.987 173.459 101.032 177.605 100.751 182.034C91.5485 182.034 82.5238 182.034 72.7003 182.034C72.7003 179.819 72.5523 177.65 72.7299 175.495C73.3069 168.391 69.8745 163.829 64.0159 160.366C56.1748 155.73 48.3781 150.929 40.8625 145.788C38.1403 143.93 35.6104 141.166 34.1162 138.223C29.9737 130.079 25.7573 121.876 22.9019 113.242C21.1414 107.892 21.3929 101.709 21.5112 95.9285C21.6444 89.6571 22.6652 83.4006 23.3014 77.1292C23.9819 76.8914 24.6477 76.6536 25.3282 76.4307C26.7041 78.2141 28.9233 79.8488 29.2931 81.8253C30.5507 88.602 31.2312 95.4827 31.9266 102.349C32.0153 103.225 31.0981 104.518 30.2844 105.128C27.3255 107.297 27.6657 109.749 29.4707 112.305C32.8438 117.091 36.2318 121.876 39.7973 126.513C40.8477 127.865 42.5342 128.727 43.9397 129.812C44.1025 129.604 44.2356 129.411 44.354 129.217Z" fill="#3F9CAD"/>
</svg>